<svg class="main-svg" xmlns="http://www.w3.org/2000/svg" xmlns:xlink="http://www.w3.org/1999/xlink" width="700" height="475" style="" viewBox="0 0 700 475"><rect x="0" y="0" width="700" height="475" style="fill: rgb(255, 255, 255); fill-opacity: 1;"/><defs id="defs-9379f7"><g class="clips"><clipPath id="clip9379f7xyplot" class="plotclip"><rect width="580" height="375"/></clipPath><clipPath class="axesclip" id="clip9379f7x"><rect x="80" y="0" width="580" height="475"/></clipPath><clipPath class="axesclip" id="clip9379f7y"><rect x="0" y="40" width="700" height="375"/></clipPath><clipPath class="axesclip" id="clip9379f7xy"><rect x="80" y="40" width="580" height="375"/></clipPath></g><g class="gradients"/></defs><g class="bglayer"/><g class="layer-below"><g class="imagelayer"/><g class="shapelayer"/></g><g class="cartesianlayer"><g class="subplot xy"><g class="layer-subplot"><g class="shapelayer"/><g class="imagelayer"/></g><g class="gridlayer"><g class="x"/><g class="y"><path class="ygrid crisp" transform="translate(0,406.07)" d="M80,0h580" style="stroke: rgb(238, 238, 238); stroke-opacity: 1; stroke-width: 1px;"/><path class="ygrid crisp" transform="translate(0,316.79)" d="M80,0h580" style="stroke: rgb(238, 238, 238); stroke-opacity: 1; stroke-width: 1px;"/><path class="ygrid crisp" transform="translate(0,227.5)" d="M80,0h580" style="stroke: rgb(238, 238, 238); stroke-opacity: 1; stroke-width: 1px;"/><path class="ygrid crisp" transform="translate(0,138.20999999999998)" d="M80,0h580" style="stroke: rgb(238, 238, 238); stroke-opacity: 1; stroke-width: 1px;"/><path class="ygrid crisp" transform="translate(0,48.93)" d="M80,0h580" style="stroke: rgb(238, 238, 238); stroke-opacity: 1; stroke-width: 1px;"/></g></g><g class="zerolinelayer"/><path class="xlines-below"/><path class="ylines-below"/><g class="overlines-below"/><g class="xaxislayer-below"/><g class="yaxislayer-below"/><g class="overaxes-below"/><g class="plot" transform="translate(80, 40)" clip-path="url(#clip9379f7xyplot)"><g class="scatterlayer mlayer"><g class="trace scatter tracee160d9" style="stroke-miterlimit: 2; opacity: 1;"><g class="fills"/><g class="errorbars"/><g class="lines"><path class="js-line" d="M0,279.61L1.16,225.08L1.74,228.95L2.32,210.84L2.9,218.29L3.48,205.05L4.06,217.7L4.64,194.76L5.23,195.11L5.81,185.37L6.39,213.36L6.97,207.78L7.55,207.28L8.13,186.42L8.71,197.06L9.29,199.88L9.87,186.71L10.45,166L11.03,199.66L11.61,189.93L12.19,194.58L12.77,164.54L13.35,188.83L13.93,162.37L14.51,192.64L15.68,177.82L16.26,180.71L16.84,177.99L17.42,193.92L18.58,175.41L19.16,188.48L20.32,191.56L20.9,182.67L21.48,185.2L22.06,197.8L22.64,173.26L23.22,190.72L23.8,190.91L24.38,178.61L24.96,174.84L25.55,178.96L26.13,191.7L26.71,182.63L27.29,182.43L27.87,192.91L28.45,172.7L29.03,173L29.61,190.53L30.77,182.26L31.35,164.68L31.93,180.84L32.51,169.96L33.67,194.07L34.25,193.36L36,165.41L36.58,183.25L37.74,170.87L38.32,176.63L40.06,171.35L40.64,180.22L41.22,173.63L41.8,184.54L42.38,173.01L42.96,189.94L44.12,159.12L44.7,160.87L45.29,169.84L45.87,169.92L46.45,168.6L47.61,178.76L48.19,170.43L48.77,174.8L49.35,174.07L49.93,167.42L50.51,182.17L51.09,167.33L51.67,165.53L52.25,170.94L53.99,142.55L54.57,161.79L55.16,155.67L55.74,166.28L56.32,176.72L56.9,173.24L57.48,161.87L58.06,172L58.64,173.66L59.22,172.68L60.38,154.58L60.96,190.85L62.12,161.87L62.7,172.48L63.28,176.45L63.86,165.67L64.44,158.79L65.03,174.79L65.61,164.24L66.19,174.77L66.77,158.21L67.35,184.3L67.93,185.04L68.51,151.57L69.09,177.68L69.67,170.28L70.25,160.51L70.83,188.22L71.41,167.35L71.99,159.99L72.57,180.35L73.73,153.22L74.31,168.04L74.89,160.7L75.48,167.18L76.06,175.15L76.64,170.79L77.8,152.87L78.38,160.55L78.96,162.17L79.54,174.43L80.12,166.91L80.7,167.65L81.28,170.83L81.86,158.59L82.44,167.07L83.02,152.14L83.6,158.81L84.18,161.82L84.76,157.57L85.35,146.28L85.93,161.85L87.09,148.66L87.67,150.04L88.25,159.05L88.83,155.44L89.41,156.23L89.99,165.21L91.73,147.32L92.31,145.05L92.89,162.14L93.47,146.59L94.63,164.19L95.22,169.35L95.8,152.32L96.38,162.41L96.96,156.43L97.54,182.54L98.7,154.52L99.28,157.3L99.86,171.38L101.02,154.97L101.6,155.44L102.18,153.03L102.76,146.82L103.34,162.72L103.92,159.79L104.5,140.88L105.67,173.26L106.25,159.92L106.83,178.95L107.41,141.58L107.99,168.05L108.57,157.94L109.73,154.63L110.31,144.04L110.89,163.62L111.47,153.71L112.05,158.41L112.63,137.02L113.21,161.47L113.79,155.89L114.37,169.32L114.95,156.03L115.54,161.13L116.12,168.98L116.7,132.44L117.28,161.94L117.86,154.33L118.44,153.68L119.02,157.77L119.6,175.37L120.18,174.34L120.76,169.03L121.34,161.09L121.92,167.29L122.5,156.23L123.08,162L123.66,160.82L124.24,152.15L124.82,179.61L125.41,159.67L126.57,131.94L127.15,164.95L127.73,158.5L128.31,163.1L128.89,147.95L129.47,157.36L130.05,157.46L130.63,147.54L131.21,174.47L131.79,153.5L132.37,152.9L132.95,155.8L133.53,165.86L134.11,159.23L134.69,148.21L135.28,168.6L135.86,174.92L136.44,159.3L137.02,160.77L137.6,144.62L140.5,178.5L141.08,155.35L141.66,156.41L142.24,152.98L142.82,143.35L143.4,172.71L143.98,157.22L144.56,169.9L145.73,142.8L146.31,154.11L146.89,144.7L147.47,162.02L149.21,131.98L149.79,147.12L150.95,159.22L151.53,158.11L152.11,139.75L153.27,160.91L153.85,158.21L154.43,148.47L155.02,157.24L156.76,137.2L157.34,163.45L159.08,154.04L159.66,160.38L160.82,156.55L161.4,157.52L161.98,148.76L162.56,155.76L163.14,137.62L163.72,147.77L164.88,171.53L165.47,137.22L166.05,157.48L166.63,146.51L167.21,161.26L167.79,159.94L168.37,156.21L168.95,151.89L169.53,158.72L170.11,148.58L170.69,124.47L171.85,160.56L172.43,154.3L173.01,133.14L173.59,145.72L174.17,166.2L174.75,157.89L175.34,148.91L175.92,156.12L177.08,171.72L177.66,154.48L178.24,149.66L178.82,153.76L179.4,172.88L179.98,140.6L181.14,174.37L181.72,165.24L182.3,162.42L182.88,150.14L183.46,149.25L184.04,152.31L184.62,146.28L185.21,174.77L186.37,139.25L186.95,152.96L187.53,153.63L188.11,146.84L188.69,154.91L189.27,150.18L189.85,142.63L190.43,173.01L191.01,139.01L191.59,164.97L192.75,140.31L193.33,174.43L194.49,148.83L195.08,152.04L195.66,137.28L196.24,158.9L197.4,144.13L197.98,157.8L198.56,145.96L199.14,149.14L199.72,157.25L200.3,159.74L200.88,147.09L202.04,173.89L202.62,170.22L203.2,138.67L203.78,144.35L204.36,162.49L204.94,145.99L205.53,147.17L206.11,151.97L206.69,151.39L207.27,138.35L208.43,165.85L209.01,149.3L209.59,164.01L210.17,153.23L210.75,152.87L211.33,134.83L212.49,162.72L213.07,151.23L213.65,142.41L214.23,146.79L214.81,135.72L215.4,150.02L216.56,147.79L217.14,180.09L218.3,143.21L218.88,162.43L219.46,148.99L220.04,162.43L220.62,160.68L221.2,161.76L221.78,153.37L222.36,155.16L222.94,153.18L223.52,165.83L224.1,130.7L224.68,179.29L225.27,150.77L225.85,163.31L226.43,155.01L227.01,171.25L227.59,142.33L228.17,160.76L228.75,149.1L229.91,171.97L230.49,144.06L231.07,154.37L231.65,135.69L232.23,148.48L232.81,143.99L233.97,157.19L234.55,141.43L235.14,153.64L235.72,147.5L236.3,150.79L236.88,165.34L238.62,153.17L239.2,161.78L240.94,145.83L241.52,158.43L242.1,129.61L242.68,163.81L243.26,148.67L243.84,159L244.42,148.47L245.01,156.19L245.59,146.06L246.17,170.38L246.75,146.52L247.33,180.73L247.91,147.46L248.49,160.33L249.07,153.84L249.65,165.25L250.23,149.98L250.81,155.57L251.39,171.69L251.97,160.82L252.55,146.39L253.13,172.23L254.29,131.79L254.87,163.16L256.62,148.8L257.2,153.7L257.78,148.1L258.36,151.43L259.52,141.47L260.1,155.87L260.68,150.65L261.26,161.68L261.84,140.53L262.42,184.28L263,144.49L263.58,157.28L264.16,160.04L264.74,143.23L265.33,137.68L265.91,150.4L266.49,136.21L267.07,168.04L268.23,144.61L268.81,162.59L269.39,141.81L269.97,173.48L270.55,141.09L271.13,160.58L271.71,141.94L272.29,149.68L272.87,139.73L273.45,141.77L274.03,160.32L274.61,144.57L275.2,151.24L275.78,154.35L276.36,131.78L276.94,161.06L277.52,160.19L278.1,157.41L278.68,158.04L279.26,173.57L281,141.93L281.58,143.79L282.74,165.85L283.32,165.03L283.9,167.34L284.48,145.67L285.07,148.02L285.65,153.31L286.23,150.58L286.81,162.64L287.97,151.38L288.55,169.81L289.13,169.81L289.71,147.99L290.29,142.47L290.87,164.39L291.45,140.91L292.03,156.77L292.61,153.74L293.19,154.78L293.77,153.15L294.35,162.19L295.52,155.21L296.1,139.55L296.68,166.78L297.26,156.41L297.84,134.94L298.42,148.25L299,145.43L299.58,134.61L300.16,160.75L300.74,144.32L301.32,157.46L301.9,151.1L303.06,167.68L303.64,164.9L304.8,135.56L305.39,155.59L305.97,147.19L306.55,162.77L307.71,175.37L308.29,134.7L309.45,149.03L310.03,151.22L310.61,145.78L311.19,156.18L311.77,158.23L312.35,171.03L312.93,152.75L313.51,159.51L314.09,149.45L314.67,157.19L315.26,150.64L315.84,166.05L316.42,158.23L317,163.13L317.58,141.56L318.16,149.7L318.74,162.09L319.32,151.6L319.9,171.32L320.48,142.45L321.06,160.16L321.64,153.31L322.22,145.29L322.8,154.85L323.38,150.57L323.96,158.51L324.54,137.82L325.13,154.06L325.71,149.44L326.29,169.08L326.87,138.81L327.45,159.26L328.03,178.77L328.61,173.35L329.19,151.5L329.77,153.19L330.35,152.48L331.51,140.14L332.09,162.01L332.67,132.77L333.25,155.06L333.83,163.66L334.41,143.48L334.99,152.02L335.58,137.4L336.16,165.66L336.74,146.58L337.32,147.4L337.9,159.44L338.48,163.37L339.06,161.51L340.22,157.41L340.8,159.75L341.38,156.58L341.96,148.24L342.54,162.9L343.12,157.64L343.7,159.58L344.28,131.07L346.03,170.39L346.61,154.64L348.35,140.6L348.93,161.56L349.51,154.61L350.09,167.42L350.67,156.34L351.25,175.79L351.83,138.28L352.41,161.15L352.99,147.68L353.57,148.94L354.15,167.03L354.73,143.53L355.32,157.75L356.48,147.43L357.06,158.78L357.64,160.35L358.22,165.11L358.8,163.31L359.38,151.53L359.96,174.42L360.54,154.84L361.12,147.33L361.7,154.62L362.28,137.01L362.86,155.93L364.02,142.73L364.6,145.68L365.19,164.16L365.77,146.26L366.35,147.66L366.93,161.81L367.51,156.57L368.09,129.94L369.25,161.56L369.83,144.21L370.41,169.11L370.99,153.61L371.57,170.09L372.15,164.33L372.73,138.26L373.31,158.97L373.89,122.81L374.47,137.1L375.06,133.75L375.64,162.16L376.8,151.52L377.38,158.48L377.96,145.46L378.54,152.98L379.12,179.66L379.7,142.06L380.28,148.7L380.86,130.07L381.44,156.55L382.02,139.17L382.6,159.07L383.18,145.05L383.76,138.77L384.34,146.67L384.92,144.2L385.51,152.37L386.09,142.5L386.67,147.67L387.25,139.55L387.83,174.65L388.99,154.16L389.57,156.94L390.15,154.11L390.73,135.27L392.47,165.45L393.05,133.25L393.63,154.13L394.21,150.93L394.79,143.04L395.38,162.58L395.96,147.91L396.54,137.13L397.12,159.96L397.7,134.01L398.28,141.17L398.86,155.06L399.44,143.78L400.02,161.3L400.6,133.47L401.18,169.37L401.76,159.43L402.34,165.19L403.5,139.5L404.08,150.8L404.66,166.17L405.25,141.49L406.41,162.45L406.99,152.29L407.57,156.63L408.15,156.53L408.73,155.03L410.47,161.49L411.05,146.48L411.63,164.09L412.21,157.9L413.95,139.3L414.53,148.23L415.12,161.9L415.7,149.73L416.28,144.45L416.86,157.06L418.02,140.43L418.6,155.52L419.18,160.7L419.76,157.08L420.34,156.78L420.92,169.92L421.5,146L422.08,157.72L422.66,157.77L423.24,167.08L423.82,151.8L424.4,168.79L424.98,162.12L425.57,137.33L427.31,165.95L427.89,144.16L428.47,149.67L429.05,174.26L429.63,140.39L430.21,154.5L430.79,146.16L431.37,165.47L432.53,146.1L433.11,157.82L433.69,160.94L434.27,157.36L434.85,164.23L435.44,154.64L436.02,156.49L436.6,152.4L437.18,151.73L437.76,139.68L438.34,167.77L438.92,151.51L440.08,164.03L440.66,157.4L441.24,153.45L441.82,158.55L442.98,149.22L443.56,150.1L444.14,160.46L444.72,151.47L445.31,152.28L445.89,163.5L447.05,144.45L447.63,147.42L448.21,143.68L448.79,159.41L449.37,174.15L449.95,154.69L450.53,153.02L451.11,166.17L451.69,125.43L452.27,162.98L454.01,142.38L454.59,154.9L455.18,141.89L455.76,160.98L456.34,152.06L456.92,167.2L457.5,151.81L458.08,162.01L458.66,171.44L459.24,146.45L459.82,161.69L460.4,156.3L460.98,159.48L461.56,135.23L462.72,168.66L463.3,150.28L463.88,141.57L464.46,152.2L465.05,135.54L465.63,170.16L466.21,168.46L466.79,161.06L467.37,148.12L467.95,158.08L468.53,156.65L469.11,157.34L470.27,149.56L470.85,158.06L471.43,163.79L472.01,151.51L472.59,157.31L473.17,154.36L473.75,145.45L474.33,170.91L474.91,140.19L475.5,165.92L476.08,148.37L476.66,148.96L477.24,156.8L477.82,161.03L478.4,137.05L480.14,157.73L480.72,154.56L481.3,158.35L481.88,154.11L482.46,146.25L483.04,155.34L483.62,143.96L484.2,158.97L484.78,159.66L485.37,162.63L485.95,149.67L486.53,157.88L487.11,144.72L487.69,148.05L488.27,151.91L488.85,167.91L489.43,137.25L490.59,170.48L491.17,146.21L492.33,159.26L492.91,150.56L493.49,156.69L494.07,147.22L494.65,161.51L495.24,154.75L495.82,154.4L496.4,143.38L496.98,156.63L497.56,146.59L498.14,132.52L498.72,134.96L499.3,147.31L499.88,144.74L500.46,163.62L501.04,152.74L501.62,163.16L502.2,141.94L502.78,146.62L503.36,171.01L503.94,137.96L504.52,148.36L505.11,173.07L505.69,157.51L506.85,138.99L507.43,147.03L508.01,153.39L508.59,135.88L509.17,139.15L509.75,158.58L510.33,160.03L510.91,133L511.49,154.89L512.07,139.54L512.65,165.24L513.23,153.53L513.81,138.01L514.39,164.73L514.97,152.49L515.56,167.91L516.14,138.97L516.72,169.56L517.3,163.84L517.88,132.77L518.46,161.11L519.04,136.71L519.62,148.46L520.2,147.85L520.78,140.28L521.36,149.4L521.94,145.93L522.52,156.76L523.1,141.19L524.26,159.14L524.84,146.46L525.43,160.92L526.01,157.54L526.59,158.46L527.17,151.84L527.75,166.11L528.33,139.71L528.91,153.77L529.49,152.78L530.07,159.31L530.65,159.53L531.23,147.59L531.81,127.48L532.39,174.39L533.55,134.96L534.13,146.46L535.3,152.54L535.88,171.48L537.04,151.88L537.62,154.06L538.2,171.01L538.78,143.27L539.36,170.01L539.94,143.99L540.52,152.72L541.1,135.52L541.68,150.7L542.26,150.14L542.84,135.3L543.42,164.74L544,151.29L545.17,159.68L545.75,155.67L546.91,143.56L547.49,159.14L548.07,152.26L548.65,160.87L549.23,136.54L549.81,157.43L550.39,176.95L550.97,168.35L551.55,142.6L552.13,162.47L552.71,161.66L553.29,147.81L553.87,140.67L554.45,143.64L555.04,147.4L555.62,137.77L556.78,158.75L557.36,133.55L557.94,160.91L558.52,158.25L559.1,159.95L559.68,149.68L560.26,152.59L560.84,155.48L561.42,159.07L562,139.43L562.58,139.77L563.16,156.58L563.74,153.71L564.32,145.59L565.49,167.68L566.07,141.17L566.65,178.05L567.23,160.51L567.81,160.29L568.39,145.58L568.97,153.63L569.55,148.96L570.13,148.98L570.71,153.41L571.29,151.07L571.87,135.09L572.45,165.67L573.03,158.45L573.61,175.06L574.77,139.75L575.36,144.78L576.52,160.92L577.1,160.26L577.68,136.8L578.26,137.3L578.84,161.27L579.42,147.36L580,148.25" style="vector-effect: non-scaling-stroke; fill: none; stroke: rgb(31, 120, 180); stroke-opacity: 1; stroke-width: 2px; opacity: 1;"/></g><g class="points"/><g class="text"/></g></g></g><g class="overplot"/><path class="xlines-above crisp" d="M79,415.5H660" style="fill: none; stroke-width: 1px; stroke: rgb(68, 68, 68); stroke-opacity: 1;"/><path class="ylines-above crisp" d="M79.5,40V415" style="fill: none; stroke-width: 1px; stroke: rgb(68, 68, 68); stroke-opacity: 1;"/><g class="overlines-above"/><g class="xaxislayer-above"><g class="xtick"><text text-anchor="middle" x="0" y="440" transform="translate(80,0)" style="font-family: 'Times New Roman'; font-size: 20px; fill: rgb(68, 68, 68); fill-opacity: 1; white-space: pre;">0</text></g><g class="xtick"><text text-anchor="middle" x="0" y="440" transform="translate(196.12,0)" style="font-family: 'Times New Roman'; font-size: 20px; fill: rgb(68, 68, 68); fill-opacity: 1; white-space: pre;">200</text></g><g class="xtick"><text text-anchor="middle" x="0" y="440" transform="translate(312.23,0)" style="font-family: 'Times New Roman'; font-size: 20px; fill: rgb(68, 68, 68); fill-opacity: 1; white-space: pre;">400</text></g><g class="xtick"><text text-anchor="middle" x="0" y="440" transform="translate(428.35,0)" style="font-family: 'Times New Roman'; font-size: 20px; fill: rgb(68, 68, 68); fill-opacity: 1; white-space: pre;">600</text></g><g class="xtick"><text text-anchor="middle" x="0" y="440" transform="translate(544.46,0)" style="font-family: 'Times New Roman'; font-size: 20px; fill: rgb(68, 68, 68); fill-opacity: 1; white-space: pre;">800</text></g></g><g class="yaxislayer-above"><g class="ytick"><text text-anchor="end" x="75" y="7" transform="translate(0,406.07)" style="font-family: 'Times New Roman'; font-size: 20px; fill: rgb(68, 68, 68); fill-opacity: 1; white-space: pre;">−1</text></g><g class="ytick"><text text-anchor="end" x="75" y="7" transform="translate(0,316.79)" style="font-family: 'Times New Roman'; font-size: 20px; fill: rgb(68, 68, 68); fill-opacity: 1; white-space: pre;">0</text></g><g class="ytick"><text text-anchor="end" x="75" y="7" transform="translate(0,227.5)" style="font-family: 'Times New Roman'; font-size: 20px; fill: rgb(68, 68, 68); fill-opacity: 1; white-space: pre;">1</text></g><g class="ytick"><text text-anchor="end" x="75" y="7" transform="translate(0,138.20999999999998)" style="font-family: 'Times New Roman'; font-size: 20px; fill: rgb(68, 68, 68); fill-opacity: 1; white-space: pre;">2</text></g><g class="ytick"><text text-anchor="end" x="75" y="7" transform="translate(0,48.93)" style="font-family: 'Times New Roman'; font-size: 20px; fill: rgb(68, 68, 68); fill-opacity: 1; white-space: pre;">3</text></g></g><g class="overaxes-above"/></g></g><g class="polarlayer"/><g class="ternarylayer"/><g class="geolayer"/><g class="pielayer"/><g class="glimages"/><defs id="topdefs-9379f7"><g class="clips"/></defs><g class="layer-above"><g class="imagelayer"/><g class="shapelayer"/></g><g class="infolayer"><g class="g-gtitle"/><g class="g-xtitle"/><g class="g-ytitle"/></g></svg>