<svg class="main-svg" xmlns="http://www.w3.org/2000/svg" xmlns:xlink="http://www.w3.org/1999/xlink" width="700" height="475" style="" viewBox="0 0 700 475"><rect x="0" y="0" width="700" height="475" style="fill: rgb(255, 255, 255); fill-opacity: 1;"/><defs id="defs-4c83b5"><g class="clips"><clipPath id="clip4c83b5xyplot" class="plotclip"><rect width="580" height="375"/></clipPath><clipPath class="axesclip" id="clip4c83b5x"><rect x="80" y="0" width="580" height="475"/></clipPath><clipPath class="axesclip" id="clip4c83b5y"><rect x="0" y="40" width="700" height="375"/></clipPath><clipPath class="axesclip" id="clip4c83b5xy"><rect x="80" y="40" width="580" height="375"/></clipPath></g><g class="gradients"/></defs><g class="bglayer"/><g class="layer-below"><g class="imagelayer"/><g class="shapelayer"/></g><g class="cartesianlayer"><g class="subplot xy"><g class="layer-subplot"><g class="shapelayer"/><g class="imagelayer"/></g><g class="gridlayer"><g class="x"/><g class="y"><path class="ygrid crisp" transform="translate(0,406.07)" d="M80,0h580" style="stroke: rgb(238, 238, 238); stroke-opacity: 1; stroke-width: 1px;"/><path class="ygrid crisp" transform="translate(0,316.79)" d="M80,0h580" style="stroke: rgb(238, 238, 238); stroke-opacity: 1; stroke-width: 1px;"/><path class="ygrid crisp" transform="translate(0,227.5)" d="M80,0h580" style="stroke: rgb(238, 238, 238); stroke-opacity: 1; stroke-width: 1px;"/><path class="ygrid crisp" transform="translate(0,138.20999999999998)" d="M80,0h580" style="stroke: rgb(238, 238, 238); stroke-opacity: 1; stroke-width: 1px;"/><path class="ygrid crisp" transform="translate(0,48.93)" d="M80,0h580" style="stroke: rgb(238, 238, 238); stroke-opacity: 1; stroke-width: 1px;"/></g></g><g class="zerolinelayer"/><path class="xlines-below"/><path class="ylines-below"/><g class="overlines-below"/><g class="xaxislayer-below"/><g class="yaxislayer-below"/><g class="overaxes-below"/><g class="plot" transform="translate(80, 40)" clip-path="url(#clip4c83b5xyplot)"><g class="scatterlayer mlayer"><g class="trace scatter trace8e0e1c" style="stroke-miterlimit: 2; opacity: 1;"><g class="fills"/><g class="errorbars"/><g class="lines"><path class="js-line" d="M0,276.18L1.74,232.08L2.32,227.35L3.48,216.62L4.06,213.78L4.64,212.37L5.23,208.22L5.81,207.31L6.39,204.51L6.97,199.48L7.55,202.71L8.13,206.25L8.71,196.83L9.29,206.05L9.87,201.94L11.61,191.22L12.19,190.2L12.77,198.02L13.35,194.78L13.93,186.91L14.51,192.41L15.1,190.61L15.68,191.87L16.84,188.16L17.42,187.85L18.58,190.99L19.16,187.38L19.74,188.23L20.32,186.73L21.48,183.61L22.06,185.7L23.22,183.1L23.8,186.47L24.96,183.81L25.55,184.9L26.71,181.3L27.29,187.28L29.03,181.38L29.61,181.37L30.19,183.23L30.77,175.92L31.35,179.63L31.93,176.91L32.51,176.75L33.09,180.63L33.67,185.55L34.25,177.91L34.83,181.89L35.42,180.48L36.58,174.29L37.16,179.19L37.74,179.78L38.32,178.11L38.9,176.73L39.48,180.81L40.06,173.5L40.64,174.2L41.22,179.58L42.38,176.29L42.96,178.87L43.54,173.13L44.12,176.51L44.7,174.23L45.29,175.77L45.87,176.57L46.45,174.28L47.03,177.67L47.61,176.99L48.19,174.46L49.35,166.33L49.93,178.71L50.51,175.08L51.09,177.2L52.25,173.92L52.83,176.11L53.41,175.64L53.99,170.19L54.57,176.09L55.16,175.22L55.74,173.24L56.32,168.3L56.9,170.53L57.48,172.02L58.06,171.7L58.64,176.01L59.22,181.96L59.8,175.36L60.38,167.28L60.96,171.72L61.54,174.58L62.12,171.94L62.7,174.08L63.28,172.34L63.86,166.19L64.44,170.31L65.03,179.37L65.61,173.87L66.19,174.82L66.77,168.01L67.35,171.03L67.93,168.79L68.51,165.51L69.09,171.05L69.67,173.27L70.25,166.36L70.83,172.18L71.41,166.07L71.99,168.88L72.57,166.39L73.15,171.23L73.73,166.64L74.31,168.98L74.89,168.23L75.48,169.83L76.06,175.89L76.64,171.83L77.8,164.11L78.38,169.45L78.96,168.82L79.54,167.06L80.12,166.48L80.7,171.96L81.86,165.22L82.44,169.5L84.18,164.67L84.76,167.32L85.35,165.32L85.93,166.17L86.51,164.54L87.09,166.72L87.67,166.2L88.25,164.67L88.83,168.31L89.41,165.28L89.99,175.53L90.57,169.06L91.73,165.74L92.31,168.06L92.89,162.98L93.47,166.18L94.05,163.65L94.63,164.8L95.22,164.84L95.8,169.88L96.38,168.24L96.96,160.94L97.54,169.63L98.12,163.59L98.7,167.15L99.28,164.81L100.44,166.8L101.02,163.4L101.6,170.38L102.18,164.78L102.76,167.32L103.34,166.55L103.92,168.21L104.5,164.47L105.09,169.28L105.67,164.7L106.25,167.25L106.83,159.67L107.41,160.42L107.99,164.33L108.57,169.01L109.15,160.03L109.73,162.66L110.31,172.86L111.47,161.71L112.05,155.85L112.63,166.67L113.21,164.03L113.79,163.45L114.37,169.29L114.95,164.68L115.54,164.92L116.12,167.89L116.7,155.4L117.28,170.13L117.86,164.89L118.44,167.21L119.02,161.67L119.6,164.21L120.18,161.26L120.76,161.93L121.34,162.35L121.92,164.8L122.5,161.29L123.08,161.53L123.66,167.65L124.24,161.87L124.82,167.99L125.41,167.38L125.99,163.21L126.57,159.85L127.15,160.26L127.73,162.57L128.31,164.45L128.89,155.78L129.47,165.16L130.05,163.69L130.63,164.27L131.21,159.09L131.79,163.24L132.37,160.64L132.95,163.74L133.53,164.32L134.11,160.47L134.69,161.48L135.28,165.55L135.86,165.49L136.44,159.52L137.02,160.28L137.6,159.77L138.76,164.2L139.34,160.32L139.92,164.4L140.5,161.36L141.08,158.96L141.66,169.54L142.24,157.9L142.82,161.02L143.4,160.65L143.98,163.63L144.56,156.87L145.73,161.11L146.31,160.82L146.89,163.33L147.47,161.24L148.63,163.79L149.21,161.99L149.79,165.76L150.37,162.07L151.53,163.59L152.11,160.93L152.69,169.55L153.27,165.12L153.85,164.77L154.43,157.24L155.02,163.24L155.6,161.66L156.18,152.41L156.76,159.09L157.34,156.26L157.92,160.27L158.5,158.48L159.08,155.95L159.66,158.06L160.24,157.11L160.82,160.81L161.4,164.88L161.98,157.38L163.14,160.97L163.72,159.1L164.3,168.12L164.88,155.08L166.05,165.69L166.63,154.55L167.21,160.88L167.79,159.17L168.37,160.05L168.95,160.04L169.53,156.09L170.11,162.39L170.69,157.71L171.27,157.69L171.85,162.36L172.43,166.33L173.01,161.61L174.17,163.26L174.75,156.93L175.34,162.52L175.92,157.73L177.08,168.43L177.66,153.93L178.82,165.73L179.4,163.64L180.56,158.93L181.14,164.68L182.3,155.44L182.88,162.41L183.46,159.61L184.04,161.84L184.62,161.08L185.21,153.96L185.79,165.22L186.37,151.83L187.53,163.63L188.11,160.32L188.69,160.26L189.27,157.35L189.85,157.47L190.43,154.68L191.01,156.3L191.59,160.47L192.17,165.61L192.75,160.91L193.33,157.65L193.91,162.27L194.49,160.78L195.08,156.04L195.66,154.59L196.24,156.99L196.82,160.35L197.4,156.78L197.98,155.72L198.56,160.37L199.14,158.78L199.72,161.56L200.88,155.75L201.46,156.91L202.62,160.82L203.2,154.15L204.36,163.73L204.94,160.9L205.53,161.24L206.11,154.75L206.69,156.35L207.27,160.88L208.43,155.17L209.01,156.85L209.59,156.08L210.17,159.74L210.75,157.54L211.33,160.21L211.91,161.73L212.49,151.97L213.65,165.07L214.23,164.74L215.4,151.36L215.98,158.81L216.56,156.71L217.14,162.9L218.88,159.37L219.46,159.99L220.04,159.81L220.62,157.78L221.2,157.08L221.78,157.76L222.94,161.19L223.52,153L224.1,163.2L224.68,153.17L225.27,157.42L225.85,152.76L226.43,157.6L227.01,155.82L227.59,154.03L228.17,157.75L228.75,164.71L229.33,160.94L230.49,155.21L231.07,159.14L231.65,158.9L232.23,155.49L233.39,160.97L233.97,153.94L235.14,158.69L235.72,158.18L236.3,158.65L236.88,153.93L237.46,155.99L238.04,155.83L238.62,150.23L239.2,162.6L239.78,156.58L240.36,161.77L240.94,160.5L241.52,158.42L242.1,153.91L242.68,155.68L243.26,165.31L243.84,161.88L244.42,156.06L245.01,158.47L245.59,161.43L246.17,156.14L246.75,160.38L247.33,158.64L247.91,151.43L248.49,158.85L249.07,156.34L249.65,161.98L250.23,162.14L250.81,158.26L251.39,154.81L251.97,157.32L253.13,153.95L253.71,160.01L254.29,155.84L254.87,157.34L255.46,157.54L256.04,162.91L257.2,155.69L257.78,159.86L258.94,157.66L259.52,152.93L260.68,156.52L261.26,150.83L261.84,158.45L262.42,158.13L263,160.11L263.58,153.6L264.16,156.69L264.74,157.22L265.33,156.43L265.91,165.48L266.49,154.59L267.07,154.14L267.65,157.41L268.23,167.82L268.81,154.21L269.39,161.9L269.97,156.78L270.55,158.6L271.13,155L271.71,154.44L272.29,152.65L272.87,151.21L273.45,157.62L274.03,153.39L274.61,159.54L276.36,154.08L276.94,155.5L277.52,157.29L278.1,154.24L279.26,160.68L279.84,159.89L280.42,159.43L281,156.22L281.58,158.54L282.16,158.34L282.74,157.23L283.32,156.59L283.9,154.69L285.07,160.07L285.65,155.3L286.23,156.52L286.81,160.36L287.39,153.27L287.97,159.26L288.55,158.88L289.13,153.49L289.71,155.95L290.29,155.71L290.87,157.34L292.03,153.36L292.61,155.88L293.19,157.08L293.77,155.75L294.35,149.85L294.93,150.78L295.52,160.32L296.1,152.67L296.68,157.35L297.26,160.94L297.84,154.06L299,158.5L299.58,149.73L300.74,161.51L301.32,157.91L302.48,159.03L303.06,153.8L303.64,159.38L304.22,154.88L304.8,153.95L305.39,154.75L305.97,154.79L306.55,150.02L307.71,156.98L308.29,148.67L309.45,160.92L310.03,152.99L310.61,153.86L311.19,156.8L311.77,154.55L312.35,160.07L312.93,164.87L313.51,158.31L314.09,157.35L314.67,153.48L315.26,160.24L315.84,156.94L316.42,158.53L317,152.61L318.16,159.63L318.74,159.87L319.32,161.08L319.9,156.4L320.48,164.28L321.06,151.84L322.22,157.24L322.8,153.77L323.38,151.37L323.96,155.37L324.54,152.33L325.13,156.38L325.71,155.82L326.29,163.42L327.45,153.59L328.03,158.29L328.61,157.45L329.19,147.31L330.35,159.58L330.93,154.52L332.09,161.5L332.67,154.47L334.41,158.55L334.99,152.81L336.74,162.53L337.32,157.65L337.9,159.77L338.48,151.31L339.06,153.52L339.64,159.52L340.22,162.34L340.8,155.23L341.38,152.49L341.96,160.73L342.54,152.83L343.12,157.02L343.7,157.79L344.28,156.73L344.86,152.47L345.45,157.11L346.03,155.79L346.61,156.9L347.19,153.22L347.77,156.73L348.35,154.41L348.93,162.28L349.51,160.81L350.09,161.69L350.67,154.24L351.25,156.3L351.83,160.04L352.41,160.2L352.99,153.83L353.57,150.98L354.15,162.56L354.73,152.43L355.32,155.75L355.9,151.31L356.48,158.46L357.06,158.13L357.64,156.78L358.22,156.38L358.8,152.26L359.38,157.45L359.96,152.01L361.12,156.81L361.7,156.59L363.44,150.62L364.02,157.93L364.6,158.08L365.19,153.67L366.35,157.38L366.93,155.77L368.09,152.59L368.67,157.11L369.25,155.64L369.83,157.61L370.41,153.94L370.99,155.67L372.15,149.2L372.73,157.48L373.89,154.1L374.47,159.34L375.06,161.31L375.64,156.91L376.22,156.61L376.8,149.65L377.38,158.03L377.96,155.12L378.54,158.25L379.12,153.24L379.7,152.36L380.28,154.07L380.86,156.9L381.44,153.6L382.6,158.67L383.18,155.2L383.76,162.21L384.34,156.73L384.92,158.27L385.51,157.64L386.09,161.7L386.67,158L387.25,148.91L387.83,155.73L388.99,154.3L389.57,156.21L390.73,154.53L391.31,153.23L391.89,158.32L392.47,151.41L393.63,156.39L394.21,151.34L395.38,154.1L395.96,162.76L397.12,154.16L397.7,160.57L398.86,149.56L399.44,151.67L400.02,154.94L400.6,147.64L401.76,156.71L402.34,150.82L402.92,157.74L403.5,153.57L404.08,157.9L404.66,149.91L406.41,157.6L406.99,152.42L408.73,158.93L409.31,154.91L409.89,152.72L410.47,153.47L411.63,159.44L412.21,153.67L412.79,157.84L413.37,153.37L413.95,156.04L414.53,155.09L415.12,153L415.7,155.38L416.86,162.85L417.44,158.56L418.6,152.88L419.18,153.87L419.76,154.16L420.34,166.68L420.92,155.96L421.5,159.49L422.08,152.4L422.66,155.49L423.82,155.94L424.4,151.95L424.98,156.71L425.57,153.5L426.15,161.17L426.73,158.6L427.31,153.75L427.89,154.93L428.47,159.3L429.05,156.88L429.63,159.33L430.21,152.11L430.79,155.81L431.37,158.62L431.95,154.66L432.53,157.72L433.11,156.55L433.69,146.96L434.27,155.92L434.85,151.47L435.44,167.58L436.6,152.05L437.18,157.9L438.34,157.96L438.92,153.51L439.5,151.21L440.08,159.8L441.82,154.07L442.4,153.31L442.98,157.84L443.56,154.48L444.14,156.36L444.72,152.9L445.31,158.31L445.89,148.49L447.05,159.34L447.63,152.6L448.21,155.71L448.79,155.56L449.37,157L450.53,162.14L451.11,158.73L452.27,153.27L452.85,154.77L453.43,155.39L454.01,160.95L454.59,154.2L455.18,154.66L455.76,152.98L456.34,156.39L456.92,155.79L457.5,152.26L458.08,156.16L458.66,147.46L459.24,156.56L459.82,156.5L460.4,159.9L461.56,154.75L462.14,154.82L463.3,159.01L463.88,151.48L464.46,161.78L465.05,157.72L465.63,152.97L466.21,159.66L467.37,151.95L467.95,153.28L468.53,153.43L469.11,156.07L469.69,154L470.27,160.07L471.43,149.52L472.01,151.29L472.59,164.68L473.17,158.95L473.75,160.82L474.33,151.35L474.91,161.23L475.5,155.28L476.66,152.07L477.24,156.2L478.4,152.1L478.98,152.43L480.72,156.05L481.3,156.24L481.88,159.71L482.46,154.02L483.04,153.08L483.62,155.54L484.2,156.42L484.78,153.54L485.37,153.67L485.95,159.84L486.53,156.68L487.11,158.29L487.69,158.78L488.27,156.75L488.85,158.5L489.43,157.59L490.59,153.76L491.17,155.89L491.75,153.72L492.33,158.29L492.91,160.21L493.49,156.59L494.07,149.17L494.65,155.31L495.24,153.46L495.82,157.78L496.98,153.04L497.56,157.09L498.14,158.98L498.72,153.34L499.3,157.3L499.88,154.99L501.04,155.66L501.62,148.37L502.2,157.34L502.78,156.53L503.36,151.82L503.94,156.63L504.52,154.67L505.11,157.09L505.69,156.12L506.27,152.79L506.85,156.54L507.43,157.39L508.01,154.03L509.17,157.81L509.75,150.48L511.49,161.08L512.07,149.06L512.65,155.62L513.23,152.07L513.81,157.04L514.39,152.12L514.97,153.71L515.56,163.83L516.14,154.26L516.72,158.12L517.88,152.01L518.46,155.19L519.62,160.62L520.2,151.56L520.78,158.54L521.36,156.84L521.94,153.16L522.52,153.53L523.1,158.03L523.68,154.52L524.26,161.07L525.43,151.88L526.01,155.77L526.59,155.47L527.17,153.24L527.75,153.97L528.33,162.43L528.91,154.54L529.49,155.73L530.07,157.86L530.65,156.15L531.23,159.12L532.39,150.32L532.97,153.25L533.55,154.08L534.13,153.55L535.88,159.58L536.46,159.56L537.04,151.1L537.62,153.22L538.2,157.67L538.78,154.78L539.36,158.63L539.94,163.11L540.52,151.42L541.1,151.26L541.68,147.28L542.84,156.3L543.42,152.54L544,153.98L544.58,153.45L545.17,153.28L545.75,160.83L546.33,149.81L547.49,158.62L548.07,154.86L548.65,156.42L549.23,162.12L549.81,156.83L550.39,158.34L550.97,155.9L551.55,156.36L552.13,153.52L552.71,162.11L553.29,158.57L553.87,153.89L554.45,156.63L555.62,156.67L556.2,151.2L557.94,156.75L558.52,154.68L559.1,153.19L559.68,154.23L560.26,154.85L560.84,161.87L562,148.54L562.58,156.61L563.16,156.08L563.74,154.48L564.32,155.75L564.9,154.13L565.49,163.76L566.07,151.74L566.65,152.54L567.23,149.29L567.81,161.05L568.39,157.93L568.97,164.86L570.13,153.05L570.71,153.53L571.29,156L571.87,151.79L572.45,157.03L573.03,151.73L573.61,151.11L574.19,153.56L574.77,155.75L575.36,151.84L575.94,152.24L576.52,154.07L577.68,153.93L578.26,155.14L578.84,154.28L579.42,158.47L580,149.93" style="vector-effect: non-scaling-stroke; fill: none; stroke: rgb(31, 120, 180); stroke-opacity: 1; stroke-width: 2px; opacity: 1;"/></g><g class="points"/><g class="text"/></g></g></g><g class="overplot"/><path class="xlines-above crisp" d="M79,415.5H660" style="fill: none; stroke-width: 1px; stroke: rgb(68, 68, 68); stroke-opacity: 1;"/><path class="ylines-above crisp" d="M79.5,40V415" style="fill: none; stroke-width: 1px; stroke: rgb(68, 68, 68); stroke-opacity: 1;"/><g class="overlines-above"/><g class="xaxislayer-above"><g class="xtick"><text text-anchor="middle" x="0" y="440" transform="translate(80,0)" style="font-family: 'Times New Roman'; font-size: 20px; fill: rgb(68, 68, 68); fill-opacity: 1; white-space: pre;">0</text></g><g class="xtick"><text text-anchor="middle" x="0" y="440" transform="translate(196.12,0)" style="font-family: 'Times New Roman'; font-size: 20px; fill: rgb(68, 68, 68); fill-opacity: 1; white-space: pre;">200</text></g><g class="xtick"><text text-anchor="middle" x="0" y="440" transform="translate(312.23,0)" style="font-family: 'Times New Roman'; font-size: 20px; fill: rgb(68, 68, 68); fill-opacity: 1; white-space: pre;">400</text></g><g class="xtick"><text text-anchor="middle" x="0" y="440" transform="translate(428.35,0)" style="font-family: 'Times New Roman'; font-size: 20px; fill: rgb(68, 68, 68); fill-opacity: 1; white-space: pre;">600</text></g><g class="xtick"><text text-anchor="middle" x="0" y="440" transform="translate(544.46,0)" style="font-family: 'Times New Roman'; font-size: 20px; fill: rgb(68, 68, 68); fill-opacity: 1; white-space: pre;">800</text></g></g><g class="yaxislayer-above"><g class="ytick"><text text-anchor="end" x="75" y="7" transform="translate(0,406.07)" style="font-family: 'Times New Roman'; font-size: 20px; fill: rgb(68, 68, 68); fill-opacity: 1; white-space: pre;">−1</text></g><g class="ytick"><text text-anchor="end" x="75" y="7" transform="translate(0,316.79)" style="font-family: 'Times New Roman'; font-size: 20px; fill: rgb(68, 68, 68); fill-opacity: 1; white-space: pre;">0</text></g><g class="ytick"><text text-anchor="end" x="75" y="7" transform="translate(0,227.5)" style="font-family: 'Times New Roman'; font-size: 20px; fill: rgb(68, 68, 68); fill-opacity: 1; white-space: pre;">1</text></g><g class="ytick"><text text-anchor="end" x="75" y="7" transform="translate(0,138.20999999999998)" style="font-family: 'Times New Roman'; font-size: 20px; fill: rgb(68, 68, 68); fill-opacity: 1; white-space: pre;">2</text></g><g class="ytick"><text text-anchor="end" x="75" y="7" transform="translate(0,48.93)" style="font-family: 'Times New Roman'; font-size: 20px; fill: rgb(68, 68, 68); fill-opacity: 1; white-space: pre;">3</text></g></g><g class="overaxes-above"/></g></g><g class="polarlayer"/><g class="ternarylayer"/><g class="geolayer"/><g class="pielayer"/><g class="glimages"/><defs id="topdefs-4c83b5"><g class="clips"/></defs><g class="layer-above"><g class="imagelayer"/><g class="shapelayer"/></g><g class="infolayer"><g class="g-gtitle"/><g class="g-xtitle"/><g class="g-ytitle"/></g></svg>