<svg class="main-svg" xmlns="http://www.w3.org/2000/svg" xmlns:xlink="http://www.w3.org/1999/xlink" width="700" height="475" style="" viewBox="0 0 700 475"><rect x="0" y="0" width="700" height="475" style="fill: rgb(255, 255, 255); fill-opacity: 1;"/><defs id="defs-654ead"><g class="clips"><clipPath id="clip654eadxyplot" class="plotclip"><rect width="580" height="375"/></clipPath><clipPath class="axesclip" id="clip654eadx"><rect x="80" y="0" width="580" height="475"/></clipPath><clipPath class="axesclip" id="clip654eady"><rect x="0" y="40" width="700" height="375"/></clipPath><clipPath class="axesclip" id="clip654eadxy"><rect x="80" y="40" width="580" height="375"/></clipPath></g><g class="gradients"/></defs><g class="bglayer"/><g class="layer-below"><g class="imagelayer"/><g class="shapelayer"/></g><g class="cartesianlayer"><g class="subplot xy"><g class="layer-subplot"><g class="shapelayer"/><g class="imagelayer"/></g><g class="gridlayer"><g class="x"/><g class="y"><path class="ygrid crisp" transform="translate(0,406.07)" d="M80,0h580" style="stroke: rgb(238, 238, 238); stroke-opacity: 1; stroke-width: 1px;"/><path class="ygrid crisp" transform="translate(0,316.79)" d="M80,0h580" style="stroke: rgb(238, 238, 238); stroke-opacity: 1; stroke-width: 1px;"/><path class="ygrid crisp" transform="translate(0,227.5)" d="M80,0h580" style="stroke: rgb(238, 238, 238); stroke-opacity: 1; stroke-width: 1px;"/><path class="ygrid crisp" transform="translate(0,138.20999999999998)" d="M80,0h580" style="stroke: rgb(238, 238, 238); stroke-opacity: 1; stroke-width: 1px;"/><path class="ygrid crisp" transform="translate(0,48.93)" d="M80,0h580" style="stroke: rgb(238, 238, 238); stroke-opacity: 1; stroke-width: 1px;"/></g></g><g class="zerolinelayer"/><path class="xlines-below"/><path class="ylines-below"/><g class="overlines-below"/><g class="xaxislayer-below"/><g class="yaxislayer-below"/><g class="overaxes-below"/><g class="plot" transform="translate(80, 40)" clip-path="url(#clip654eadxyplot)"><g class="scatterlayer mlayer"><g class="trace scatter traceb33b10" style="stroke-miterlimit: 2; opacity: 1;"><g class="fills"/><g class="errorbars"/><g class="lines"><path class="js-line" d="M0,267.08L0.58,235.86L1.16,241.37L1.74,214.18L2.9,268.78L3.48,185.41L4.06,206.63L4.64,149.56L5.23,193.65L5.81,151.68L6.39,164.86L6.97,163.03L7.55,197.44L8.71,144.19L9.29,166.98L9.87,153.37L10.45,172.09L11.03,134.61L11.61,193.6L12.19,146.87L12.77,190.41L13.35,155.85L13.93,213.76L14.51,135.97L15.1,172.95L15.68,193.73L16.26,144.78L16.84,184.34L17.42,171.11L18,168.13L18.58,174.28L19.16,157.65L19.74,179.3L20.32,187.81L20.9,179.59L21.48,150.99L22.06,163.16L22.64,153L23.22,172.25L24.38,175.41L24.96,157.16L26.13,180.08L26.71,158.57L27.87,186.11L28.45,165.82L29.61,185.48L30.19,136.06L30.77,195.31L31.35,168.07L31.93,157.99L32.51,195.54L33.09,115.24L33.67,186.12L34.25,181.8L34.83,213.17L35.42,150.45L36,170.54L36.58,170.87L37.16,152.64L37.74,182.31L38.32,157.23L38.9,138.86L39.48,205.96L40.64,147.1L41.22,179.88L41.8,143.7L42.38,163.48L42.96,164.56L43.54,179.39L44.12,182.7L44.7,163.67L45.29,162.22L45.87,207.53L46.45,203.04L47.03,177.07L48.19,205.29L48.77,151.66L49.35,121.3L49.93,179.81L50.51,195.89L51.09,160.58L51.67,176.77L52.25,133.26L52.83,133.28L53.41,175.5L53.99,174.43L54.57,135.4L55.16,171.33L55.74,157.74L56.9,160.81L57.48,146.58L58.06,135.36L58.64,170.79L59.22,151.4L59.8,187.46L60.38,214.45L60.96,189.97L61.54,156.57L62.12,186.61L62.7,151.88L63.28,161.31L63.86,163.77L64.44,168.2L65.03,117.94L66.19,170.56L66.77,178.67L67.35,141.49L67.93,190.3L68.51,162.58L69.09,180.79L71.41,141.83L71.99,153.91L72.57,149.35L73.15,129.41L73.73,160.62L74.31,154.75L74.89,157.34L75.48,118.41L76.06,199.53L77.8,142.29L78.38,172.27L78.96,167.46L79.54,177.25L80.12,178.17L80.7,130.49L81.86,168.23L82.44,149.62L83.02,183.18L83.6,164.26L84.18,179.35L84.76,135.81L85.35,171.83L85.93,141.55L86.51,152.03L87.09,145.32L87.67,119.96L88.25,151.8L88.83,148.16L89.41,138.68L89.99,100.27L90.57,168.27L91.15,114.27L91.73,143.52L92.31,104.8L92.89,127.35L93.47,192.37L94.05,146.67L94.63,164.1L95.22,162.09L95.8,135.56L96.38,129.28L96.96,166.39L98.7,154.7L99.28,161.59L99.86,142.24L100.44,196.08L101.02,128.32L101.6,131.68L102.18,156.2L102.76,169.82L103.34,160.5L103.92,181.85L104.5,126.97L105.09,160.12L105.67,129.43L106.25,154.83L106.83,123.99L108.57,182.36L109.15,192.43L109.73,131.05L110.31,162.51L111.47,150.75L112.05,131.98L113.21,167.5L113.79,162.88L114.95,168.03L115.54,162.73L116.7,127.46L117.28,170.66L117.86,124.37L118.44,158.05L119.02,193.92L119.6,107.63L120.76,159.11L121.34,149.09L121.92,146.76L122.5,173.81L123.08,162.72L123.66,168.25L125.41,140.46L125.99,146.55L126.57,144.96L127.15,148.69L127.73,164.71L128.31,156.49L129.47,155.72L130.05,141.47L130.63,172.2L131.21,141.81L132.37,135.21L132.95,148.6L133.53,141.75L134.11,169.35L134.69,152.24L135.28,173.74L135.86,167.21L136.44,184.76L137.02,187.09L137.6,152.12L138.18,185.73L138.76,161.49L139.34,126.15L139.92,180.27L140.5,165.95L141.08,117.73L141.66,142.54L142.24,134.94L142.82,142.74L143.4,177.41L143.98,177.12L144.56,144.29L145.15,189.67L145.73,111.45L146.31,146.93L146.89,132.38L148.05,166.36L148.63,113.96L149.79,168.2L150.37,168.05L152.11,119.7L152.69,114.85L153.27,160.15L153.85,143.76L154.43,175.95L155.02,132.86L155.6,126.15L156.18,146.09L156.76,191.22L157.34,167.27L157.92,145.06L158.5,158.27L159.08,132.74L159.66,165.07L161.4,107.28L161.98,151.88L162.56,177.23L163.14,136.54L163.72,151.23L164.3,124.36L165.47,152.14L166.05,136.21L166.63,169.9L167.21,137.81L167.79,150.54L168.37,192.22L169.53,121.2L170.11,130.97L170.69,173.5L171.27,194.55L171.85,156.08L172.43,157.84L173.01,133.88L173.59,119.55L174.17,148.97L175.34,103.62L175.92,136.04L176.5,141.18L177.08,171.04L178.24,128.28L178.82,138.34L179.4,119.2L179.98,156.06L180.56,147.88L181.14,150.89L181.72,137.06L182.3,164.15L182.88,121.15L183.46,170.89L184.04,154.02L184.62,180.35L185.21,199.78L185.79,166.16L186.95,140.34L187.53,149.05L188.69,109.3L189.27,160.17L189.85,123.2L190.43,144.38L191.01,151.19L191.59,141.26L192.17,141.78L192.75,103.51L193.33,182.88L193.91,182.58L194.49,196.57L195.08,113.13L195.66,147.21L196.82,165.77L197.4,103.54L197.98,127.98L198.56,118.05L199.14,174.57L199.72,148.63L200.3,175.42L200.88,175.25L201.46,132.99L202.04,168.4L202.62,150.16L203.78,104.81L204.36,144.83L204.94,188.42L205.53,153.82L206.11,191.05L206.69,144.17L207.27,169.33L207.85,118.85L208.43,139.12L209.01,127.54L209.59,111.06L210.17,131.54L210.75,134.11L211.33,151.39L211.91,115.46L212.49,142.78L213.07,153.59L213.65,126.79L214.23,136.16L214.81,160.34L215.98,139.38L216.56,151.21L217.14,129.39L217.72,139.67L218.3,166.52L218.88,133.79L219.46,127.2L220.04,137.53L221.2,147.7L221.78,115.32L222.94,161.95L223.52,132.37L224.1,131.94L224.68,182.69L225.27,180.2L225.85,82.95L226.43,140.87L227.01,125.6L227.59,176L228.17,169.37L228.75,120.41L230.49,165.46L231.07,154.62L231.65,139.89L232.23,140.15L232.81,158.14L233.39,124.08L233.97,176.93L234.55,113.52L235.14,168.58L235.72,169.36L236.3,137.62L236.88,139.05L237.46,163.72L238.04,93.06L238.62,135.45L239.2,156.2L239.78,132.41L240.36,121.34L240.94,147.55L241.52,126.73L242.1,134.73L242.68,181.8L243.26,116.72L243.84,89.48L244.42,160.58L245.01,160.37L245.59,138.6L246.17,143.1L246.75,169.35L247.33,171.39L247.91,121.74L248.49,99.5L249.07,124.82L250.23,179.18L250.81,166.3L251.97,130.29L252.55,149.58L253.13,178.63L253.71,156.2L254.29,154.16L254.87,123.04L255.46,162L256.04,155.95L256.62,171.81L257.78,97.4L258.36,153.45L258.94,141.96L259.52,102.55L260.1,116.16L260.68,160.2L261.84,134.28L262.42,108.91L263,163.43L263.58,113.96L264.74,171.31L265.33,116.14L265.91,142.03L266.49,100.64L267.07,138.58L267.65,130.56L268.23,154.44L268.81,113.22L269.39,121.42L269.97,144.78L270.55,131.1L271.13,190.73L272.29,135.56L272.87,183.49L274.61,104.54L275.2,164.46L275.78,104.87L276.36,135.27L276.94,104.19L277.52,110.07L278.1,135.41L278.68,125.94L279.26,165.65L279.84,119.07L280.42,175.75L281,120.2L281.58,146.55L282.74,189.67L283.32,184.64L283.9,166.71L285.07,110.14L285.65,181.39L286.23,147.96L286.81,179.34L287.39,133.67L287.97,146.99L288.55,163.9L289.13,120.34L289.71,154L290.29,156.72L290.87,177.89L291.45,187.24L292.03,136.21L292.61,145.18L293.19,170.5L294.93,122.98L295.52,164.09L296.1,147.87L296.68,176.06L297.26,123.59L297.84,174.59L298.42,167.43L299,139.15L299.58,118.75L300.16,163.29L300.74,153.44L301.32,123.57L301.9,139.26L302.48,116.7L303.06,160.85L303.64,156.56L304.22,154.08L305.39,121.5L305.97,126.01L306.55,126.78L307.13,172.9L307.71,135.48L308.29,138.99L308.87,140.43L309.45,128.92L310.03,161.01L310.61,138.33L311.19,148.47L311.77,149.69L312.35,125.16L312.93,134.84L313.51,134.57L314.09,158.52L314.67,164L315.26,154.3L315.84,148.98L316.42,176.97L317,109.87L317.58,187.82L318.16,136.07L318.74,176.94L319.32,171.88L319.9,155.02L320.48,153.07L321.06,134.84L322.22,156.17L322.8,145.74L323.38,118.56L323.96,123.77L324.54,187.03L326.29,108.72L326.87,147.92L327.45,147.84L328.03,122.43L328.61,163.65L329.19,141.51L329.77,125.1L330.35,148.52L331.51,142.79L332.09,149.38L332.67,175.54L333.25,134.43L333.83,146.78L334.41,121.14L334.99,174.23L335.58,98.45L336.16,142.78L336.74,93.07L337.32,144.59L337.9,132.07L338.48,122.6L339.06,174.11L339.64,155.14L340.22,155.39L340.8,133.67L341.38,128.49L341.96,163.59L342.54,129.74L343.12,181.3L343.7,145.47L344.28,154.47L344.86,127.22L345.45,178.48L346.03,123.84L346.61,138.1L347.19,137.12L347.77,140.31L348.35,102.29L348.93,141.13L349.51,137.2L350.09,160.11L351.25,141.49L351.83,108.34L352.41,113.83L352.99,200.43L353.57,164.36L354.15,175.87L355.32,139.44L355.9,181.93L356.48,121.55L357.06,135.6L357.64,133.17L358.22,158.45L358.8,146.2L359.38,154.42L359.96,146.29L360.54,128.55L361.12,167.07L361.7,107.89L362.28,134.28L362.86,145.46L363.44,145.26L364.02,143.75L364.6,87.8L365.19,108.95L365.77,142.58L366.35,119.95L367.51,175.42L368.09,111.5L368.67,126.78L369.25,105.79L369.83,157.34L370.41,128.03L370.99,116.2L371.57,155.97L372.15,192.08L372.73,148.75L373.31,185.64L373.89,133.76L374.47,171.24L375.06,117.95L375.64,129.51L376.22,185.11L377.38,139.42L377.96,161.07L378.54,156.87L379.12,135.1L379.7,177.45L380.28,102.79L380.86,155.34L381.44,133.61L382.6,181.04L383.18,137.86L383.76,118.12L384.34,156.73L384.92,92.18L385.51,127.88L386.67,117.67L387.25,123.42L387.83,115.57L388.41,187.85L389.57,98.37L390.15,108.55L390.73,159.95L391.31,117.1L391.89,127.71L392.47,188.03L393.05,140.99L393.63,142.37L394.21,176.12L394.79,178.74L395.38,186.22L395.96,145.91L396.54,148.1L397.12,174.19L397.7,136.08L398.28,162.85L399.44,121.56L400.02,170.07L401.18,91.81L401.76,121.96L402.92,153.16L403.5,128.21L404.08,149.12L404.66,121.91L405.25,177.76L405.83,132.04L406.99,153.51L407.57,152.12L408.15,137.92L408.73,154.25L409.31,183.07L409.89,141.49L410.47,114.96L411.05,143.85L411.63,120.04L412.21,156.76L412.79,151.77L413.37,160.98L413.95,165.27L414.53,148.73L415.12,135.51L415.7,162.96L416.28,157.13L416.86,140.97L417.44,108.09L418.02,128.87L418.6,149.87L419.18,143.58L419.76,119.04L420.34,135.14L420.92,134.86L421.5,132.21L422.08,134.75L422.66,143.2L423.24,163.41L423.82,144.37L424.4,143.83L424.98,139.77L426.15,150.1L426.73,104.37L427.89,204.84L428.47,123.34L429.63,149.47L430.21,145.76L430.79,133.72L431.37,148.65L431.95,146.78L432.53,149.58L433.69,141.52L434.27,159.4L435.44,126.71L436.02,179.93L437.18,134.71L437.76,128.14L438.34,202.64L438.92,137.26L440.08,107.47L440.66,131L441.24,163.65L441.82,158.07L442.4,148.09L442.98,157.52L443.56,106.75L444.14,102.35L444.72,196.21L445.31,173.96L445.89,183.56L446.47,93.68L447.05,140.86L447.63,132.36L448.21,154.33L448.79,161.66L449.37,128.73L449.95,119.83L450.53,140.02L451.11,174.19L451.69,122.5L452.27,165.13L452.85,113.99L453.43,173.14L454.01,129.84L455.18,142.52L455.76,135.55L456.34,180.43L456.92,128.27L457.5,106.87L458.08,171.35L459.24,100.24L459.82,126.93L460.4,135.46L460.98,175.79L461.56,111.52L462.14,122.34L462.72,148.06L463.3,132.26L463.88,137.89L464.46,202.18L465.05,159.29L465.63,129.58L466.21,163.81L467.37,125.15L467.95,137.69L468.53,104.67L469.11,167.73L469.69,210.98L470.27,157.04L470.85,135.6L471.43,156.61L472.01,182.15L472.59,145.13L473.17,147.49L473.75,165.16L474.33,119.7L474.91,175.91L475.5,175.98L476.08,135.82L476.66,131.25L477.24,171.24L477.82,123.33L478.4,157.65L478.98,152.71L479.56,160.72L480.14,106.17L480.72,159.36L481.3,114.22L481.88,156.7L482.46,156.73L483.04,134.78L483.62,152.19L484.2,135.98L484.78,130.85L485.37,118.56L485.95,98.9L486.53,161.53L487.11,176.39L487.69,135.79L488.27,154.77L488.85,130.31L489.43,120.93L490.01,130.75L491.17,116.37L491.75,122.96L492.91,170.32L493.49,124.04L494.65,167.47L495.24,127.91L496.4,155.67L496.98,140.75L497.56,139.57L498.14,156.16L498.72,147.68L499.3,100.97L499.88,172.11L500.46,139.7L501.04,119.26L501.62,122.87L502.2,134.73L503.36,180.17L503.94,137.97L504.52,109.65L505.11,151.23L505.69,138.28L506.27,156.13L506.85,125.67L507.43,145.27L508.01,175.89L508.59,133.4L509.75,145.23L510.33,158.48L512.07,119.25L512.65,121.12L513.81,141.6L514.39,106.08L514.97,141.15L515.56,140.29L516.14,118.45L516.72,152.34L517.3,138.24L517.88,139.28L518.46,186.53L519.04,134.14L519.62,142.22L520.2,176.36L520.78,126.97L521.36,158.91L522.52,120.34L523.1,136.74L523.68,132.79L524.26,134.79L524.84,122.62L525.43,157.29L526.01,181.1L526.59,148.28L527.17,157.12L527.75,110.28L528.33,162.93L528.91,128.87L529.49,142.46L530.07,126.23L531.23,179.71L531.81,177.54L532.97,128.96L533.55,148.97L534.71,101.54L535.3,145.72L535.88,149.7L536.46,105.49L537.04,114.22L537.62,74.59L538.2,172.53L538.78,149.95L539.36,156.58L540.52,171.69L541.1,166.25L541.68,157.46L542.26,131.89L542.84,162.35L543.42,142.11L544.58,113.88L545.17,153.09L545.75,128.41L546.33,153.75L547.49,106.45L548.07,122.68L548.65,160.72L549.23,133.31L550.39,141.21L550.97,115.23L551.55,174.91L552.13,150.23L552.71,192.56L553.29,155.51L553.87,197.62L554.45,147.31L555.04,137.25L555.62,173.14L557.36,117.36L557.94,166.22L558.52,113.55L559.1,159.86L560.26,120.2L560.84,154.38L561.42,154.86L562,153.12L562.58,135.12L563.16,159.63L563.74,145.05L564.32,154.68L564.9,107.07L565.49,146.67L566.07,126.16L566.65,141.23L567.23,140.16L567.81,153.31L568.39,141.61L568.97,166.17L569.55,178.88L570.13,156.93L570.71,154.34L571.29,146.45L571.87,169.52L572.45,125.51L573.03,123.73L573.61,126.59L574.19,100.62L574.77,166.45L575.36,147.69L575.94,165.96L576.52,188.18L577.1,110.65L577.68,156L578.26,142.51L578.84,133.63L579.42,163.64L580,147.02" style="vector-effect: non-scaling-stroke; fill: none; stroke: rgb(31, 120, 180); stroke-opacity: 1; stroke-width: 2px; opacity: 1;"/></g><g class="points"/><g class="text"/></g></g></g><g class="overplot"/><path class="xlines-above crisp" d="M79,415.5H660" style="fill: none; stroke-width: 1px; stroke: rgb(68, 68, 68); stroke-opacity: 1;"/><path class="ylines-above crisp" d="M79.5,40V415" style="fill: none; stroke-width: 1px; stroke: rgb(68, 68, 68); stroke-opacity: 1;"/><g class="overlines-above"/><g class="xaxislayer-above"><g class="xtick"><text text-anchor="middle" x="0" y="440" transform="translate(80,0)" style="font-family: 'Times New Roman'; font-size: 20px; fill: rgb(68, 68, 68); fill-opacity: 1; white-space: pre;">0</text></g><g class="xtick"><text text-anchor="middle" x="0" y="440" transform="translate(196.12,0)" style="font-family: 'Times New Roman'; font-size: 20px; fill: rgb(68, 68, 68); fill-opacity: 1; white-space: pre;">200</text></g><g class="xtick"><text text-anchor="middle" x="0" y="440" transform="translate(312.23,0)" style="font-family: 'Times New Roman'; font-size: 20px; fill: rgb(68, 68, 68); fill-opacity: 1; white-space: pre;">400</text></g><g class="xtick"><text text-anchor="middle" x="0" y="440" transform="translate(428.35,0)" style="font-family: 'Times New Roman'; font-size: 20px; fill: rgb(68, 68, 68); fill-opacity: 1; white-space: pre;">600</text></g><g class="xtick"><text text-anchor="middle" x="0" y="440" transform="translate(544.46,0)" style="font-family: 'Times New Roman'; font-size: 20px; fill: rgb(68, 68, 68); fill-opacity: 1; white-space: pre;">800</text></g></g><g class="yaxislayer-above"><g class="ytick"><text text-anchor="end" x="75" y="7" transform="translate(0,406.07)" style="font-family: 'Times New Roman'; font-size: 20px; fill: rgb(68, 68, 68); fill-opacity: 1; white-space: pre;">−1</text></g><g class="ytick"><text text-anchor="end" x="75" y="7" transform="translate(0,316.79)" style="font-family: 'Times New Roman'; font-size: 20px; fill: rgb(68, 68, 68); fill-opacity: 1; white-space: pre;">0</text></g><g class="ytick"><text text-anchor="end" x="75" y="7" transform="translate(0,227.5)" style="font-family: 'Times New Roman'; font-size: 20px; fill: rgb(68, 68, 68); fill-opacity: 1; white-space: pre;">1</text></g><g class="ytick"><text text-anchor="end" x="75" y="7" transform="translate(0,138.20999999999998)" style="font-family: 'Times New Roman'; font-size: 20px; fill: rgb(68, 68, 68); fill-opacity: 1; white-space: pre;">2</text></g><g class="ytick"><text text-anchor="end" x="75" y="7" transform="translate(0,48.93)" style="font-family: 'Times New Roman'; font-size: 20px; fill: rgb(68, 68, 68); fill-opacity: 1; white-space: pre;">3</text></g></g><g class="overaxes-above"/></g></g><g class="polarlayer"/><g class="ternarylayer"/><g class="geolayer"/><g class="pielayer"/><g class="glimages"/><defs id="topdefs-654ead"><g class="clips"/></defs><g class="layer-above"><g class="imagelayer"/><g class="shapelayer"/></g><g class="infolayer"><g class="g-gtitle"/><g class="g-xtitle"/><g class="g-ytitle"/></g></svg>