<svg class="main-svg" xmlns="http://www.w3.org/2000/svg" xmlns:xlink="http://www.w3.org/1999/xlink" width="700" height="475" style="" viewBox="0 0 700 475"><rect x="0" y="0" width="700" height="475" style="fill: rgb(255, 255, 255); fill-opacity: 1;"/><defs id="defs-2e96c3"><g class="clips"><clipPath id="clip2e96c3xyplot" class="plotclip"><rect width="580" height="375"/></clipPath><clipPath class="axesclip" id="clip2e96c3x"><rect x="80" y="0" width="580" height="475"/></clipPath><clipPath class="axesclip" id="clip2e96c3y"><rect x="0" y="40" width="700" height="375"/></clipPath><clipPath class="axesclip" id="clip2e96c3xy"><rect x="80" y="40" width="580" height="375"/></clipPath></g><g class="gradients"/></defs><g class="bglayer"/><g class="layer-below"><g class="imagelayer"/><g class="shapelayer"/></g><g class="cartesianlayer"><g class="subplot xy"><g class="layer-subplot"><g class="shapelayer"/><g class="imagelayer"/></g><g class="gridlayer"><g class="x"/><g class="y"><path class="ygrid crisp" transform="translate(0,406.07)" d="M80,0h580" style="stroke: rgb(238, 238, 238); stroke-opacity: 1; stroke-width: 1px;"/><path class="ygrid crisp" transform="translate(0,316.79)" d="M80,0h580" style="stroke: rgb(238, 238, 238); stroke-opacity: 1; stroke-width: 1px;"/><path class="ygrid crisp" transform="translate(0,227.5)" d="M80,0h580" style="stroke: rgb(238, 238, 238); stroke-opacity: 1; stroke-width: 1px;"/><path class="ygrid crisp" transform="translate(0,138.20999999999998)" d="M80,0h580" style="stroke: rgb(238, 238, 238); stroke-opacity: 1; stroke-width: 1px;"/><path class="ygrid crisp" transform="translate(0,48.93)" d="M80,0h580" style="stroke: rgb(238, 238, 238); stroke-opacity: 1; stroke-width: 1px;"/></g></g><g class="zerolinelayer"/><path class="xlines-below"/><path class="ylines-below"/><g class="overlines-below"/><g class="xaxislayer-below"/><g class="yaxislayer-below"/><g class="overaxes-below"/><g class="plot" transform="translate(80, 40)" clip-path="url(#clip2e96c3xyplot)"><g class="scatterlayer mlayer"><g class="trace scatter traceba666a" style="stroke-miterlimit: 2; opacity: 1;"><g class="fills"/><g class="errorbars"/><g class="lines"><path class="js-line" d="M0,276.8L1.74,231.02L2.32,223.39L3.48,213.85L4.06,210.54L5.23,199.7L5.81,203.65L7.55,198.15L8.13,204.17L8.71,193.98L9.29,197.36L10.45,195.02L11.03,189.02L11.61,193.07L12.19,191.09L12.77,190.35L13.35,192.41L14.51,186.81L15.1,189.89L16.84,185.9L17.42,187.12L18,187.98L18.58,187.31L19.74,183.83L20.32,186.57L21.48,182.85L22.06,186.11L22.64,181.75L23.22,185.69L23.8,185.02L24.38,181.98L24.96,182.64L25.55,181.26L26.71,178.78L27.29,180.86L28.45,181.72L29.03,179.73L29.61,177.57L30.19,178.67L30.77,178.04L31.35,180.05L31.93,173.76L32.51,178.76L33.09,176.44L33.67,184.23L34.83,176.7L35.42,178.79L36,173.72L36.58,175.16L37.16,175.11L37.74,172.17L38.32,176.38L38.9,170.87L39.48,175.43L40.06,172.69L40.64,175.89L41.22,177.11L41.8,174.5L42.38,174.4L42.96,175.44L43.54,172.73L44.12,174.44L44.7,174.88L45.29,172.19L47.61,178.29L48.19,175.16L49.35,169.22L49.93,172.81L50.51,176.2L51.09,175.02L51.67,174.91L52.25,170.39L52.83,174.19L53.41,173.74L53.99,166.84L54.57,174.14L55.16,172.32L55.74,172.07L56.32,167.81L56.9,172.67L57.48,171.9L58.06,165.75L58.64,172.12L59.22,171.2L59.8,168.71L60.38,164.79L60.96,168.95L62.7,171.59L63.28,174.33L63.86,165.62L64.44,168.59L65.03,174.32L65.61,168.81L66.19,171.77L66.77,166.34L67.35,169.67L67.93,167.25L68.51,166.68L69.09,167.51L69.67,171.68L70.25,166.57L70.83,170.25L71.41,165.58L71.99,169.33L72.57,168.27L73.15,168L73.73,168.31L74.31,171.22L74.89,167.66L75.48,168.27L76.06,170.34L76.64,164.64L77.22,167.33L77.8,163.43L78.38,169.57L79.54,164.82L80.12,165.29L80.7,169.68L81.86,163.5L82.44,164.36L83.02,168.48L83.6,166.93L84.18,163.68L84.76,169.78L85.93,166.45L86.51,165.23L87.67,163.29L88.25,165.57L88.83,163.87L89.41,165.17L89.99,168.47L90.57,164.31L91.15,166.89L91.73,163.52L92.31,163.95L92.89,162.47L93.47,160.37L94.05,164.64L94.63,164.8L95.22,163.26L95.8,171.15L96.38,163.39L96.96,160.55L97.54,166.31L98.12,161.21L98.7,168.61L99.28,165.11L99.86,165.57L100.44,164.68L101.6,165.88L102.18,161.53L102.76,162.25L103.34,159.83L103.92,167.78L104.5,163L105.67,165.17L106.25,165.66L106.83,161.68L107.41,162.51L107.99,162.36L108.57,167.8L109.15,157.59L109.73,159.93L110.31,166.67L110.89,167.17L111.47,162.98L112.05,157.2L112.63,164.69L113.21,161.97L113.79,164.6L114.37,166.81L114.95,163.16L115.54,162.21L116.12,163.46L116.7,158.52L117.28,167.18L117.86,161.81L118.44,163.03L119.02,163.2L119.6,162.88L120.18,159.92L121.34,161.96L121.92,162.91L122.5,159.81L123.08,160.72L123.66,162.51L124.24,158.16L124.82,163.58L125.41,165.74L125.99,162.27L127.15,158.63L127.73,158.67L128.31,159.5L128.89,158.03L130.05,166.39L130.63,158.77L131.21,159.05L131.79,161.53L132.95,158.8L133.53,163.6L134.69,158.01L135.28,163.53L135.86,163.46L136.44,160.62L137.02,161.87L137.6,157.96L138.18,158.66L138.76,161.26L139.92,161.12L140.5,160.66L141.08,159.1L141.66,163.35L142.24,159.1L142.82,160.67L143.4,160.52L143.98,163.95L145.73,157.7L146.31,159.68L146.89,160.98L147.47,158.72L148.05,163.23L148.63,161.59L149.21,157.15L149.79,159.09L150.95,160.83L151.53,159.83L152.11,160.12L152.69,165.49L153.27,164.64L153.85,161.36L154.43,156.37L155.02,160.98L155.6,162.02L156.18,156.3L156.76,159.21L157.34,157.16L157.92,161.56L158.5,158.8L159.08,154.91L159.66,160.29L160.24,157.61L160.82,160.35L161.4,163.04L161.98,158.73L162.56,161.28L163.14,158.65L163.72,156.98L164.3,162.07L164.88,158.45L165.47,160.91L166.05,160.71L166.63,156.21L167.79,161.39L168.37,159.83L168.95,160.33L169.53,157.92L170.11,159.51L170.69,156.9L171.85,162.42L172.43,161.12L173.01,160.61L173.59,158.78L174.17,159.15L174.75,156.12L175.92,158.28L176.5,158.27L177.08,161.89L177.66,157.19L178.24,156.11L178.82,160.51L179.4,160.64L179.98,157.47L181.14,162.09L181.72,161.19L182.3,158.15L182.88,161.84L184.04,156.76L184.62,158.01L185.21,155.76L185.79,155.97L186.37,157.45L186.95,153.82L187.53,161.29L188.11,155.54L188.69,156.44L189.27,156.35L189.85,160.24L190.43,157.24L191.01,153.43L191.59,159.35L192.17,161.79L192.75,158.83L193.33,156.05L193.91,161.46L195.08,155.5L195.66,154.35L196.24,159.52L196.82,156.49L197.4,156.56L197.98,159.13L199.14,154.5L199.72,160.4L200.88,155.01L201.46,160.39L202.62,161.72L203.2,152.67L204.36,160.96L204.94,157.91L205.53,158.47L206.11,155.65L206.69,154.66L207.27,158.96L207.85,156.63L208.43,158.58L209.59,154.19L210.17,157.83L211.33,156.63L211.91,161.41L212.49,153.37L213.07,158.34L213.65,160.13L214.23,159.37L215.4,154.81L215.98,157.44L216.56,154.64L217.14,158.09L217.72,160.67L218.3,157.77L218.88,160.58L219.46,157.86L220.62,154.6L221.2,158.49L221.78,156.95L222.36,159.1L222.94,159.76L223.52,154.18L224.1,159.17L224.68,158.53L225.27,156.61L225.85,154.72L226.43,157.9L227.01,157.97L227.59,154.12L228.75,160.71L229.33,157.13L230.49,160.64L231.07,156.78L231.65,158.78L232.23,157.71L232.81,159.35L233.39,156.88L233.97,154.38L234.55,160L235.14,159.1L235.72,155.89L236.3,158.02L236.88,156.25L238.04,155.58L238.62,148.81L239.2,160.89L239.78,158.58L240.36,157.4L240.94,159.17L241.52,156.34L242.68,150.24L243.26,162.1L243.84,156.99L244.42,157.89L245.01,155.98L245.59,159.85L246.17,157.83L246.75,158.18L247.33,156.6L247.91,153.78L248.49,160.85L249.07,156.81L249.65,161.47L250.81,159.09L251.39,154.19L252.55,156.33L253.13,155.41L253.71,156.61L254.29,155.09L254.87,160.29L255.46,155.75L256.62,156.78L257.2,155.47L257.78,154.19L258.36,157.06L258.94,156.15L259.52,152.22L260.68,157.36L261.26,155.1L261.84,157.72L262.42,157.32L263,159.24L264.74,154.23L265.33,154.46L265.91,159.69L266.49,154.35L267.65,155.74L268.23,161.12L268.81,156.54L269.39,159.31L270.55,155.04L271.13,155.56L271.71,155.82L272.29,153.28L272.87,153.08L273.45,156.87L274.03,153.96L274.61,158.04L275.2,157.76L275.78,156.64L276.36,152.59L276.94,156.8L277.52,157.48L278.1,155.89L278.68,153.3L279.26,158.39L279.84,157.75L280.42,153.49L281,155.24L281.58,154.33L282.16,154.17L282.74,157.15L283.32,157.75L283.9,155.36L284.48,158.04L285.07,155.57L285.65,155.66L286.23,156.63L286.81,155.84L287.39,153.64L288.55,157.94L289.13,155.99L290.29,152.3L290.87,156.07L291.45,153.46L292.03,154.46L293.19,157.24L293.77,155.49L294.93,152.87L295.52,155.48L296.1,156.14L296.68,159.34L297.26,155.03L297.84,156.74L298.42,154.31L299,156.84L299.58,149.2L300.16,156.04L301.32,154.69L301.9,155.7L303.06,153.43L303.64,154.75L304.8,152.72L305.39,154.42L305.97,154.23L306.55,155.36L307.13,155.08L307.71,157.87L308.29,152.23L308.87,157.74L309.45,158.39L310.03,154.34L311.19,153.45L311.77,152.34L312.93,161.01L313.51,153.84L314.09,152.15L314.67,155.52L315.84,154.72L316.42,158L317,152.03L317.58,156.9L318.16,156.19L318.74,157.93L319.9,153.79L320.48,159.77L321.64,152.85L322.22,159.72L322.8,153.35L323.38,154.09L323.96,150.34L325.13,155.36L325.71,154.04L326.29,160.37L326.87,156.72L327.45,153.35L328.03,157.25L328.61,158.7L329.19,153.65L330.35,155.49L330.93,151.7L332.09,156.3L332.67,151.13L333.25,151.7L333.83,154.05L334.41,154.36L334.99,153.39L336.74,157.38L337.32,155.65L337.9,154.94L338.48,151.73L339.06,151.89L339.64,158.56L340.22,158.79L340.8,153.97L341.38,153.42L341.96,157.84L342.54,152.84L343.12,155.38L344.28,152.29L344.86,154.49L345.45,155.3L346.03,158.92L347.77,153.21L348.35,154.29L348.93,159.47L349.51,157.88L350.09,157.77L350.67,156.09L351.83,156.62L352.41,158.55L353.57,151.98L354.15,157.52L354.73,156.52L355.32,157.48L355.9,153.1L356.48,156.53L357.06,154.98L357.64,155.65L358.22,156.92L358.8,154.8L359.96,153L360.54,153.62L361.12,153.69L361.7,152.31L362.28,153.34L362.86,155.92L363.44,151.14L364.02,155.44L364.6,154.56L365.19,150.82L365.77,153.8L366.35,152.31L367.51,156.12L368.09,150.49L369.25,156.29L369.83,153.88L371.57,155.14L372.15,152.4L373.31,154.33L373.89,151.06L375.06,158.2L375.64,155.51L376.22,156.87L376.8,154.3L377.38,156.54L377.96,154.66L378.54,157.98L379.12,153.84L379.7,150.67L380.28,152.72L380.86,157.02L381.44,155.83L382.02,153.06L382.6,157.87L383.18,152.6L383.76,156.27L384.34,154.62L385.51,154.33L386.09,155.93L386.67,158.3L387.25,153.73L388.41,156.53L388.99,156.43L389.57,156.44L390.15,154.51L390.73,155.75L391.31,154.94L391.89,154.24L392.47,151.77L393.63,153.78L394.21,154.28L394.79,151.98L395.38,155.24L396.54,158.44L397.12,152.66L397.7,152.79L398.28,152.13L398.86,153.52L399.44,153.08L400.02,153.44L400.6,148.12L401.18,151.02L402.34,156.29L402.92,154.37L403.5,153.37L404.08,154.72L404.66,148.62L405.25,152.55L405.83,152.7L406.41,158.28L406.99,152.4L407.57,155.24L408.15,157.21L408.73,156.81L409.31,156.35L409.89,158.64L410.47,153.5L411.05,155.63L411.63,154.74L412.21,154.68L412.79,156.34L413.95,156.93L414.53,153.01L415.7,156.77L416.28,156.84L418.02,153.58L418.6,154.28L419.18,153.38L419.76,156.71L420.34,158.47L420.92,156.05L421.5,158.57L422.08,151.66L422.66,156.56L423.24,156.27L423.82,153.36L424.4,153.47L424.98,158.74L425.57,152.95L426.15,156.99L426.73,156.74L427.31,154.5L427.89,154.11L428.47,154.69L429.05,157.73L429.63,156.12L430.79,150.82L431.37,155.64L432.53,155.41L433.11,156.24L433.69,151.71L434.27,153.56L434.85,154.08L435.44,160.76L436.6,152.83L437.18,159.24L437.76,153.28L438.34,157.55L439.5,151.19L440.08,159.54L441.24,154.57L441.82,157.35L442.4,153.34L442.98,159.51L443.56,154.26L444.14,154.37L444.72,150.99L445.31,157.29L445.89,152.01L446.47,159.65L447.05,154.87L447.63,154.59L448.21,152.5L448.79,155.37L449.37,154.02L449.95,153.14L450.53,161.12L451.69,154.79L452.27,154.77L452.85,153.98L453.43,150.32L454.59,157.8L455.18,154.07L455.76,151.85L456.34,155.61L456.92,154.99L457.5,152.32L458.08,155.03L458.66,154.28L459.24,153.38L460.4,157.14L460.98,153.44L461.56,155.62L462.14,152.81L462.72,152.45L463.3,154.9L463.88,151.89L464.46,156.68L465.05,158.28L465.63,157.73L466.21,156.58L467.37,150.93L467.95,152.97L468.53,151.56L469.11,157.53L469.69,152.79L470.27,156.93L470.85,158.38L471.43,146.86L472.59,154.94L473.17,155.15L473.75,153.96L474.33,159.1L476.08,152.74L476.66,154.52L478.4,151.09L478.98,153.02L480.72,154.87L481.3,151.57L481.88,158.2L482.46,152.09L483.62,156.88L484.2,154.63L484.78,154.36L485.37,148.78L485.95,157.61L486.53,153.29L488.27,158.29L488.85,154.24L489.43,156.59L490.01,155.42L490.59,155.02L491.17,151.86L492.91,159.58L493.49,151.86L494.07,153.64L494.65,152.54L495.24,150.29L495.82,155.32L496.4,153L496.98,155.94L497.56,153.71L498.14,156.17L499.3,151.24L499.88,154.32L500.46,156.34L501.04,155.24L501.62,153.01L502.2,158.34L502.78,157.63L503.36,153.11L503.94,155.76L504.52,153.6L505.69,155.65L506.27,151.97L506.85,157.48L507.43,156.12L508.01,150.13L509.17,155.12L509.75,152.36L510.33,155.21L510.91,150.19L511.49,155.96L512.07,150.16L512.65,153.97L513.23,149.81L513.81,155.3L514.39,151.79L514.97,152.07L515.56,159.86L516.14,153.91L516.72,157.79L517.88,152.22L518.46,151.66L519.04,153.63L519.62,158.44L520.2,151.67L520.78,156.3L521.94,152.6L522.52,155.27L523.68,157.63L524.26,153.38L524.84,155.7L525.43,155.28L526.01,153.72L527.17,151.7L527.75,154.95L528.91,154.98L529.49,151.17L530.07,156.9L530.65,151.79L531.23,155.47L531.81,152.42L532.39,153.92L532.97,152.23L534.13,151.33L534.71,155.32L535.3,155.25L535.88,156.28L536.46,156.4L537.04,155.06L538.2,158.59L538.78,154.78L539.36,157.44L539.94,156.83L540.52,153.54L541.68,150.2L542.26,150.94L542.84,155.7L543.42,154.32L544,150.23L545.75,155.73L546.33,149.67L547.49,155.14L548.07,153.04L548.65,156.08L549.23,155.95L549.81,157.68L550.39,155.27L550.97,155.62L551.55,156.78L552.71,153.98L553.29,157.49L553.87,150.04L554.45,154.06L555.04,155.79L555.62,155.19L556.2,154.07L556.78,149.05L557.36,152.91L557.94,156.36L558.52,155.36L559.1,155.15L559.68,156.47L560.26,153.9L560.84,156.83L561.42,153.04L562,152.31L562.58,156.33L563.16,157.73L563.74,152.74L564.32,154.25L564.9,153.9L565.49,162.28L566.65,152.62L567.23,151.91L567.81,156.64L568.39,152.61L569.55,157.41L570.13,154.43L571.29,153.15L571.87,154.03L572.45,154.78L573.03,149.16L573.61,153.57L574.19,152.5L574.77,152.55L575.94,152.02L576.52,154.67L577.1,153.5L577.68,155.15L578.26,149.11L578.84,157.05L579.42,156.91L580,150.98" style="vector-effect: non-scaling-stroke; fill: none; stroke: rgb(31, 120, 180); stroke-opacity: 1; stroke-width: 2px; opacity: 1;"/></g><g class="points"/><g class="text"/></g></g></g><g class="overplot"/><path class="xlines-above crisp" d="M79,415.5H660" style="fill: none; stroke-width: 1px; stroke: rgb(68, 68, 68); stroke-opacity: 1;"/><path class="ylines-above crisp" d="M79.5,40V415" style="fill: none; stroke-width: 1px; stroke: rgb(68, 68, 68); stroke-opacity: 1;"/><g class="overlines-above"/><g class="xaxislayer-above"><g class="xtick"><text text-anchor="middle" x="0" y="440" transform="translate(80,0)" style="font-family: 'Times New Roman'; font-size: 20px; fill: rgb(68, 68, 68); fill-opacity: 1; white-space: pre;">0</text></g><g class="xtick"><text text-anchor="middle" x="0" y="440" transform="translate(196.12,0)" style="font-family: 'Times New Roman'; font-size: 20px; fill: rgb(68, 68, 68); fill-opacity: 1; white-space: pre;">200</text></g><g class="xtick"><text text-anchor="middle" x="0" y="440" transform="translate(312.23,0)" style="font-family: 'Times New Roman'; font-size: 20px; fill: rgb(68, 68, 68); fill-opacity: 1; white-space: pre;">400</text></g><g class="xtick"><text text-anchor="middle" x="0" y="440" transform="translate(428.35,0)" style="font-family: 'Times New Roman'; font-size: 20px; fill: rgb(68, 68, 68); fill-opacity: 1; white-space: pre;">600</text></g><g class="xtick"><text text-anchor="middle" x="0" y="440" transform="translate(544.46,0)" style="font-family: 'Times New Roman'; font-size: 20px; fill: rgb(68, 68, 68); fill-opacity: 1; white-space: pre;">800</text></g></g><g class="yaxislayer-above"><g class="ytick"><text text-anchor="end" x="75" y="7" transform="translate(0,406.07)" style="font-family: 'Times New Roman'; font-size: 20px; fill: rgb(68, 68, 68); fill-opacity: 1; white-space: pre;">−1</text></g><g class="ytick"><text text-anchor="end" x="75" y="7" transform="translate(0,316.79)" style="font-family: 'Times New Roman'; font-size: 20px; fill: rgb(68, 68, 68); fill-opacity: 1; white-space: pre;">0</text></g><g class="ytick"><text text-anchor="end" x="75" y="7" transform="translate(0,227.5)" style="font-family: 'Times New Roman'; font-size: 20px; fill: rgb(68, 68, 68); fill-opacity: 1; white-space: pre;">1</text></g><g class="ytick"><text text-anchor="end" x="75" y="7" transform="translate(0,138.20999999999998)" style="font-family: 'Times New Roman'; font-size: 20px; fill: rgb(68, 68, 68); fill-opacity: 1; white-space: pre;">2</text></g><g class="ytick"><text text-anchor="end" x="75" y="7" transform="translate(0,48.93)" style="font-family: 'Times New Roman'; font-size: 20px; fill: rgb(68, 68, 68); fill-opacity: 1; white-space: pre;">3</text></g></g><g class="overaxes-above"/></g></g><g class="polarlayer"/><g class="ternarylayer"/><g class="geolayer"/><g class="pielayer"/><g class="glimages"/><defs id="topdefs-2e96c3"><g class="clips"/></defs><g class="layer-above"><g class="imagelayer"/><g class="shapelayer"/></g><g class="infolayer"><g class="g-gtitle"/><g class="g-xtitle"/><g class="g-ytitle"/></g></svg>