<svg class="main-svg" xmlns="http://www.w3.org/2000/svg" xmlns:xlink="http://www.w3.org/1999/xlink" width="700" height="475" style="" viewBox="0 0 700 475"><rect x="0" y="0" width="700" height="475" style="fill: rgb(255, 255, 255); fill-opacity: 1;"/><defs id="defs-98e669"><g class="clips"><clipPath id="clip98e669xyplot" class="plotclip"><rect width="580" height="375"/></clipPath><clipPath class="axesclip" id="clip98e669x"><rect x="80" y="0" width="580" height="475"/></clipPath><clipPath class="axesclip" id="clip98e669y"><rect x="0" y="40" width="700" height="375"/></clipPath><clipPath class="axesclip" id="clip98e669xy"><rect x="80" y="40" width="580" height="375"/></clipPath></g><g class="gradients"/></defs><g class="bglayer"/><g class="layer-below"><g class="imagelayer"/><g class="shapelayer"/></g><g class="cartesianlayer"><g class="subplot xy"><g class="layer-subplot"><g class="shapelayer"/><g class="imagelayer"/></g><g class="gridlayer"><g class="x"/><g class="y"><path class="ygrid crisp" transform="translate(0,290)" d="M80,0h580" style="stroke: rgb(238, 238, 238); stroke-opacity: 1; stroke-width: 1px;"/><path class="ygrid crisp" transform="translate(0,165)" d="M80,0h580" style="stroke: rgb(238, 238, 238); stroke-opacity: 1; stroke-width: 1px;"/></g></g><g class="zerolinelayer"/><path class="xlines-below"/><path class="ylines-below"/><g class="overlines-below"/><g class="xaxislayer-below"/><g class="yaxislayer-below"/><g class="overaxes-below"/><g class="plot" transform="translate(80, 40)" clip-path="url(#clip98e669xyplot)"><g class="scatterlayer mlayer"><g class="trace scatter traceaf50f2" style="stroke-miterlimit: 2; opacity: 1;"><g class="fills"/><g class="errorbars"/><g class="lines"><path class="js-line" d="M0,280.06L0.58,359.31L1.16,304.96L1.74,243.2L2.32,264.15L2.9,323.64L3.48,268.55L4.06,268.97L4.64,249.32L5.23,161.98L5.81,279.2L6.39,274.7L6.97,236.52L8.13,314.18L8.71,162.29L9.29,248.71L9.87,194.84L11.03,225.68L11.61,161.62L12.19,275.04L12.77,238.9L13.35,256.45L13.93,228.99L15.1,165.32L15.68,361.9L16.84,195.5L17.42,244.45L18,324.34L18.58,248.24L19.16,182.74L19.74,198.74L20.32,190.83L20.9,176.25L21.48,194.08L22.64,222.51L23.22,322.85L23.8,312.28L24.38,199.65L24.96,254.02L25.55,175.48L26.13,303.71L26.71,182.33L27.29,148.98L27.87,289.18L28.45,156.37L29.03,306.29L29.61,277.4L30.19,376.18L31.35,161.92L31.93,151.1L32.51,219.82L33.09,85.02L33.67,290.91L34.25,225.54L34.83,222.93L35.42,189.09L36,140.59L36.58,338.53L37.16,207.57L37.74,213.43L38.32,240.66L38.9,241.67L39.48,249.77L40.64,163.98L41.22,263.76L41.8,240.62L42.38,322.26L42.96,149.88L43.54,205.71L44.12,192.26L44.7,151.38L45.29,151.53L45.87,264.85L46.45,183.65L47.03,190.35L47.61,192.11L48.19,207.83L48.77,319.46L49.35,261.7L49.93,127.17L51.09,228.32L51.67,199.75L52.25,178.52L52.83,196.81L53.41,148.73L53.99,192.7L54.57,177.69L55.16,265.38L55.74,314.16L56.32,251.54L56.9,92.06L57.48,240.66L58.06,222.69L58.64,276.62L60.38,108.17L60.96,197.18L61.54,269.47L62.12,133.79L62.7,214.53L63.28,195.12L63.86,214.97L64.44,218.99L65.03,149.2L66.19,274.13L66.77,196L67.35,393.83L67.93,259.6L68.51,299.72L69.09,234.69L70.25,150.74L70.83,274.85L71.41,125.09L71.99,180.34L73.15,121.79L73.73,150.4L74.89,175.6L75.48,297.42L76.64,161.19L77.22,247.92L77.8,262.72L78.38,203.26L78.96,202.7L79.54,306.95L80.12,167.26L80.7,267L82.44,74.98L83.02,174.75L83.6,210.65L84.18,148.52L84.76,156.92L85.35,178.12L85.93,218.6L86.51,212.8L87.09,172.19L87.67,214.12L88.25,178.17L88.83,318.82L89.41,174.02L89.99,219.53L90.57,168.67L91.15,153.38L91.73,171.56L92.31,15.41L92.89,296.24L93.47,195.17L94.05,232.03L94.63,219.48L95.22,130.55L95.8,274.78L96.38,220.09L96.96,236.2L97.54,186.29L98.12,247.85L98.7,200.1L99.28,258.75L99.86,109.75L101.02,234.8L101.6,158.51L102.76,211.68L103.34,199.95L103.92,235.74L104.5,151.8L105.09,213.44L105.67,202.49L106.25,124.76L106.83,228.19L107.41,185.22L107.99,271.83L108.57,210.8L109.15,157.63L109.73,235.15L110.31,162.73L110.89,200.64L112.05,134.33L112.63,185.41L113.21,99.13L113.79,376.68L114.95,149.93L115.54,251.5L116.7,206.62L117.28,252.4L117.86,199.28L118.44,249.15L119.02,218.85L119.6,284.82L120.76,124.56L121.34,112.19L122.5,168.88L123.08,278.09L123.66,214.44L124.24,307.25L125.41,116.93L125.99,272.83L126.57,153.37L127.15,212.99L128.89,153.9L129.47,174.42L130.05,313.33L130.63,297.04L131.21,290.93L131.79,163.49L132.37,226.09L132.95,137.14L133.53,270.52L134.11,120.57L134.69,152.28L135.28,298.64L135.86,144.23L136.44,155.36L137.02,173.04L137.6,89.66L138.18,202.59L138.76,147.16L139.34,259.86L140.5,299.81L141.08,258.5L142.24,147.04L142.82,128L143.98,112.38L144.56,258.38L145.73,296.14L146.31,208.48L147.47,144.2L148.05,190.96L148.63,267.88L149.21,210.5L149.79,231.95L150.37,223.65L150.95,224.81L151.53,122.98L152.11,147.26L152.69,206.67L153.27,224.09L153.85,309.45L154.43,104.61L155.02,267.59L155.6,116.08L156.18,160.21L156.76,165.29L157.34,145.66L157.92,253.75L158.5,153.15L159.08,258.28L159.66,158.44L160.24,166.7L160.82,199.17L161.4,252.54L161.98,212.9L162.56,213.51L163.14,235.93L163.72,158.05L164.3,237.67L164.88,138.32L165.47,167.71L166.05,222.82L166.63,192.56L167.21,143.2L167.79,212.85L168.37,153.28L168.95,190.49L169.53,161.46L170.11,234.62L170.69,123.32L171.27,136.37L171.85,203.99L172.43,48.27L173.01,209.46L174.17,176.9L174.75,10.88L175.34,338.1L175.92,308.54L176.5,189.33L177.08,178.73L177.66,230.85L178.24,136.21L178.82,325.96L179.98,207.74L180.56,221.67L181.14,308.44L181.72,235.53L182.88,146.4L183.46,212.45L184.04,154.3L184.62,235.78L185.21,114.71L185.79,158.28L186.37,330.62L186.95,197.45L187.53,167.1L188.11,34.06L189.27,279.61L189.85,173.85L190.43,171.48L191.01,310.32L192.17,95.44L192.75,188.9L193.33,85.99L193.91,176.08L194.49,289.18L195.08,123.36L196.24,338.64L196.82,129.51L197.4,263.96L197.98,181.17L199.14,103.45L199.72,229.61L200.3,254.46L200.88,168.26L202.04,263.62L202.62,255.49L203.2,101.23L203.78,144.02L204.36,84.75L204.94,138.1L205.53,266.22L206.69,95.09L207.27,126.73L207.85,168.72L208.43,82.67L209.59,204.55L210.17,177.19L210.75,117.99L211.33,179.75L211.91,181.81L212.49,138.61L213.65,186.16L214.23,190.55L214.81,207.64L215.4,180.7L215.98,86.38L216.56,278.59L217.14,181.8L217.72,242.42L218.3,206.7L218.88,231.76L219.46,217.32L220.04,218.83L220.62,210.79L221.2,106.53L221.78,180.81L222.36,274.25L222.94,251.4L223.52,167.84L224.1,149.27L224.68,187.81L225.27,238.13L225.85,236.51L226.43,239.07L227.59,181.62L228.17,158.95L229.33,290.05L229.91,241L231.07,356.87L231.65,163.99L232.23,85.88L232.81,233.13L233.97,118.87L234.55,242.66L235.72,132.25L236.3,217.23L237.46,115.15L238.04,171.17L238.62,110.27L239.2,144.84L240.36,177.03L240.94,173.44L241.52,146.1L242.1,255.78L243.84,79.44L244.42,199.97L245.01,191.17L245.59,194.43L246.17,253.35L246.75,119.81L247.33,122.56L247.91,250.05L248.49,241.8L249.07,208.37L249.65,154.24L250.23,185.39L250.81,296.47L251.39,223.55L251.97,300.78L252.55,162.44L253.13,116.85L253.71,190.74L254.29,300.14L254.87,128.48L255.46,208.78L256.04,175.34L256.62,172.75L257.2,113.8L257.78,67.93L258.36,184.77L258.94,147.48L259.52,226.07L260.1,150.58L260.68,206.17L261.84,116.68L262.42,205.49L263,143.38L263.58,258.6L264.16,29.86L264.74,224.04L265.33,299.41L265.91,182.58L266.49,252.73L267.07,248.58L267.65,154.3L268.81,323.8L269.39,170.43L270.55,242.62L271.13,64.55L271.71,227.65L272.29,146.75L274.03,192.72L274.61,256.62L275.2,32.33L275.78,167.75L276.36,217.1L276.94,176.8L277.52,233.44L278.1,232.62L278.68,222.97L279.26,251.95L279.84,220.24L280.42,62.15L281,226.69L281.58,155.25L282.16,187.31L283.32,151.58L283.9,248.08L284.48,109.56L285.07,195.51L285.65,191.99L286.23,271.37L286.81,301.91L287.39,143.3L287.97,302.6L288.55,173.89L289.13,159.73L289.71,202.58L290.29,154.51L290.87,253.06L291.45,236.55L292.03,189.08L292.61,122L293.19,170.13L293.77,209.75L294.35,133.98L294.93,122.83L295.52,142.88L296.1,286.01L296.68,171.87L297.26,332.67L297.84,139.46L298.42,307.57L299,279.14L299.58,250.06L300.74,100.24L301.32,119.31L301.9,284.12L302.48,200.01L303.06,189.91L303.64,104.78L304.22,73.13L304.8,257.19L305.97,195.45L306.55,190.88L307.13,260.85L307.71,214.95L308.29,229.91L308.87,192.25L310.03,104.93L310.61,138.4L311.19,239.14L311.77,161.22L312.35,165.23L312.93,86.86L314.09,158.7L314.67,258.9L315.26,208.85L315.84,242.03L317,152.55L317.58,133.49L318.16,234.48L318.74,218.6L319.32,191.61L320.48,253.02L321.06,228.05L321.64,229.19L322.22,316.12L322.8,271.03L323.38,160.36L323.96,146.48L324.54,177.15L325.13,243.6L325.71,64.73L327.45,269.36L328.03,120.33L329.19,221.57L329.77,188.21L330.35,184.25L330.93,194.68L332.09,91.54L332.67,136.43L333.25,217.36L333.83,55.56L334.41,223.45L334.99,110.47L335.58,275.65L336.16,105.76L337.32,238.15L337.9,152.87L338.48,178.23L339.06,170.12L339.64,146.88L340.22,207.74L340.8,270.68L341.38,206.2L341.96,86.1L342.54,154.39L343.12,269.66L343.7,106.82L344.28,177.67L344.86,162.62L345.45,215.81L346.61,103.8L347.19,105.05L347.77,132.91L348.93,322.5L349.51,303.89L350.09,157.31L350.67,186.46L351.25,285.87L352.41,60.78L352.99,152.89L353.57,284.05L354.15,162.34L354.73,194.93L355.32,191.71L355.9,278.51L356.48,228.89L357.06,48.1L358.22,218.75L358.8,237.65L359.38,333.46L359.96,9.74L361.12,219.47L361.7,155.27L362.86,244.67L363.44,72.74L364.6,139.65L365.19,216.05L365.77,101.35L366.35,223.18L366.93,210.56L367.51,217.39L368.09,198.95L368.67,151.76L369.25,198.57L369.83,159.12L370.41,112.38L370.99,228.95L371.57,221.46L372.15,244.48L372.73,175.06L373.31,178.6L373.89,186.34L374.47,75.29L375.06,240.02L375.64,91.87L376.22,141.83L377.38,176.49L377.96,243.54L378.54,173.06L379.12,205.03L379.7,264.19L380.28,201.69L380.86,143.6L381.44,168.89L383.18,70.13L383.76,212.29L384.34,92.75L384.92,187.53L385.51,117.11L386.09,296.06L386.67,141.36L387.25,195.8L387.83,231.16L388.41,199.96L388.99,94.85L389.57,183.64L390.15,178.02L390.73,316.21L391.89,117.21L392.47,204.36L393.05,162.88L393.63,167.6L394.21,174.31L395.38,259.81L395.96,134.47L397.7,199.75L398.28,154.79L398.86,190.63L399.44,180.2L400.02,191.45L400.6,254.28L401.18,90.89L402.34,349.97L402.92,158.58L404.08,184.48L404.66,384.64L405.25,119.3L405.83,131.16L406.41,139.06L406.99,283.76L407.57,269.76L408.15,264.36L408.73,245.91L409.31,150.28L409.89,295.34L410.47,182.8L411.05,331.02L411.63,138.76L412.79,70.07L413.37,118.49L413.95,65.49L414.53,77.07L415.12,172.88L415.7,109.9L416.28,139.67L416.86,214.85L417.44,164.32L418.02,205.84L418.6,204.96L419.18,221.78L420.34,261.57L420.92,128.57L422.66,272.16L423.24,263.54L423.82,135.29L424.4,291.75L424.98,170.63L425.57,138.71L426.15,180.53L426.73,114.57L427.31,205.91L427.89,142.36L428.47,205.22L429.05,202.56L429.63,167.32L430.21,209.51L430.79,160.47L431.37,102.8L431.95,133.64L432.53,110.87L433.11,263.23L433.69,242.86L434.27,134.5L434.85,190.02L435.44,117.35L436.02,136.95L436.6,61.65L438.34,283.16L438.92,120.93L439.5,93.08L440.08,229.59L440.66,185.46L441.24,216.17L441.82,61.78L442.4,288.4L442.98,156.12L443.56,168.09L444.14,120L444.72,44.28L445.31,132.3L446.47,232.74L447.05,164.25L447.63,79.41L448.21,127.2L448.79,221.73L449.37,39.09L449.95,127.42L450.53,114.74L451.11,-18.17L451.69,219.84L452.27,179.21L452.85,57.76L453.43,129.73L454.01,105.71L454.59,96.47L455.18,117.5L455.76,162.73L456.34,132.87L457.5,214.37L458.08,142.52L458.66,112.62L459.24,192.52L460.4,296.15L460.98,126.73L461.56,72.4L462.14,139.75L462.72,111.9L463.3,142.4L464.46,85.59L465.05,197.77L465.63,219.78L466.21,171.62L466.79,198.48L467.37,183.12L467.95,37.34L468.53,78.7L469.11,141.31L469.69,95L470.27,186.57L472.01,94.99L472.59,111.92L474.33,210.71L474.91,204.88L475.5,190.65L476.08,190.91L476.66,82.07L477.24,126.42L477.82,55.67L478.4,55.47L478.98,204.74L480.14,130.67L480.72,94.19L481.88,183.92L482.46,181.88L483.04,60.88L483.62,184.54L484.2,216.94L484.78,185.14L485.95,91.75L486.53,294.4L487.11,284.89L487.69,146.8L488.27,198.08L488.85,163.84L489.43,206.94L490.01,88.9L490.59,123.07L491.17,83.36L491.75,146.64L492.33,117.12L492.91,96.47L493.49,147.69L494.07,278.39L494.65,138.1L495.82,214.73L496.4,77.46L498.72,186.45L499.3,169.03L499.88,74.16L500.46,196.2L501.62,77.43L502.2,190.04L502.78,199.88L503.36,291.21L503.94,151.27L504.52,197.04L506.85,27.29L507.43,154.05L508.01,217.69L508.59,144.26L509.17,74.82L509.75,160.88L510.33,17.56L510.91,93.89L511.49,192.85L512.07,154.25L512.65,148.48L513.23,192.08L514.39,151.8L514.97,169.83L515.56,365.52L516.14,170.96L516.72,187.87L517.3,121.96L518.46,229.51L519.04,135.13L519.62,65.15L520.2,79.87L520.78,223.16L521.36,278.67L521.94,155.73L522.52,39.88L523.1,244.57L523.68,232.53L524.26,98.83L524.84,126.38L525.43,191L526.59,150.84L527.17,158.81L527.75,137.36L528.33,214.22L528.91,246.12L529.49,129.3L530.07,98.37L530.65,187.6L531.23,128.08L531.81,150.1L532.39,35.26L532.97,79.17L533.55,242.81L534.13,188.52L534.71,326.44L535.3,192.79L535.88,208.72L536.46,170.85L537.04,171.77L537.62,129.14L538.2,298.31L538.78,184.48L539.36,48.47L539.94,223.14L541.1,126.7L541.68,148.56L542.84,45.33L543.42,93.03L544,272.57L544.58,106.64L545.17,131.84L545.75,120.14L546.33,53.55L546.91,193.7L547.49,103.62L548.07,157.32L548.65,125.34L549.23,189.78L549.81,187L550.39,173.45L550.97,100.27L551.55,222.54L552.13,46.94L552.71,184.41L553.29,241.98L553.87,98.88L554.45,165.49L555.04,156.89L555.62,69.75L556.78,209.42L557.36,188.02L557.94,192.69L558.52,275.83L559.1,115.52L559.68,168.53L560.84,268.98L561.42,122.84L562.58,186.06L563.16,310.17L564.32,145.22L564.9,234.02L565.49,102.33L566.07,177.9L566.65,231.72L567.23,197.38L568.39,106.73L568.97,190.26L570.13,152.15L570.71,172.76L571.29,288.52L571.87,200.75L572.45,55.55L573.03,165.3L574.19,119.53L574.77,41.17L575.94,241.05L576.52,269.25L577.68,72.52L578.26,134.41L578.84,275.73L579.42,167.3L580,242.83" style="vector-effect: non-scaling-stroke; fill: none; stroke: rgb(31, 120, 180); stroke-opacity: 1; stroke-width: 2px; opacity: 1;"/></g><g class="points"/><g class="text"/></g><g class="trace scatter tracea5b4e0" style="stroke-miterlimit: 2; opacity: 1;"><g class="fills"/><g class="errorbars"/><g class="lines"><path class="js-line" d="M0,424.97L1.16,178.34L1.74,300.19L2.32,283.49L2.9,299.67L3.48,160.53L4.06,380.07L4.64,182.59L5.23,195.48L5.81,275.84L6.39,251.18L6.97,188.4L7.55,198.58L8.13,332.3L8.71,205.24L9.29,253.28L9.87,263.87L10.45,174.4L11.03,111.72L11.61,348.07L12.19,132.26L12.77,238.55L13.93,162.29L14.51,180.12L15.1,241.68L15.68,201.93L16.26,178.03L16.84,193.81L17.42,182.6L18,185.95L18.58,143.71L19.16,199.51L19.74,173.45L20.32,258.82L20.9,183.57L21.48,292.15L22.06,192.69L22.64,227.28L24.38,126.75L24.96,173.45L25.55,200.9L26.13,178.08L26.71,232.07L27.29,413.69L28.45,210.87L29.03,187.07L30.19,225.54L30.77,142.43L31.35,295.51L31.93,141.64L32.51,129.58L33.09,240.54L33.67,94.17L34.25,257.83L34.83,143.98L35.42,217.46L36,197.28L36.58,92.86L37.74,305.47L38.32,165.76L38.9,90.45L39.48,212.09L40.06,167.9L40.64,214.47L41.22,136.28L41.8,228.31L42.38,308.5L42.96,191.33L43.54,139.83L44.12,208.22L44.7,254.93L45.29,82.23L46.45,253.7L47.03,292.07L47.61,302.87L48.19,214.51L49.35,148.75L49.93,173.28L50.51,219.47L51.09,88.11L52.25,253.33L52.83,187.99L53.41,116.3L53.99,199.94L54.57,217.67L55.16,210.52L55.74,289.5L56.32,253.62L56.9,268.83L57.48,237.59L58.06,230.64L58.64,245.4L59.22,150.46L59.8,159.73L60.38,204.45L60.96,276.16L61.54,83.21L62.12,234.42L62.7,189.42L63.28,162.16L63.86,188.67L64.44,100.47L65.03,137.33L65.61,238.86L66.19,202.48L66.77,285.15L67.35,160.85L68.51,182.75L69.09,155.12L69.67,246.42L70.25,205.53L70.83,210.25L71.41,150.26L72.57,249.03L73.15,249.17L73.73,271.96L74.31,241.37L74.89,322.15L75.48,243.8L76.06,257.76L76.64,237.14L77.22,121.66L77.8,149.32L78.38,280.7L78.96,249.34L79.54,336.01L80.7,57.98L81.28,183.32L81.86,234.78L82.44,185.19L83.02,184.3L83.6,282.89L84.18,189.99L84.76,231.72L85.35,142.74L85.93,170.23L86.51,195.45L87.09,273.17L87.67,90.48L88.25,128.27L88.83,122.49L89.41,206.52L89.99,197.89L90.57,189.02L91.15,205.68L91.73,158.19L92.31,292.26L92.89,181.68L93.47,173.78L94.05,218.28L94.63,197.8L95.22,213.93L95.8,235.15L96.38,152.79L96.96,168.93L97.54,134.53L98.12,182.4L98.7,308.94L99.86,232.2L100.44,241.53L101.02,348.15L101.6,222.36L102.76,126.43L103.34,182.05L103.92,125.96L104.5,210.43L105.09,279.97L105.67,186.7L106.25,205.09L106.83,264.48L107.99,153.67L108.57,187.67L110.31,239.59L110.89,235.9L112.05,97.07L112.63,180.28L113.79,264.3L114.37,154.94L114.95,99.07L115.54,141.95L116.12,129.08L116.7,190.23L117.28,107.22L117.86,165.93L118.44,183.59L119.02,299.92L120.18,91.41L120.76,259.56L121.34,159.45L121.92,164.33L122.5,214.59L123.08,149.7L123.66,168.76L124.24,141.63L124.82,193.11L125.41,206.91L125.99,111.25L126.57,255.58L127.15,154.88L127.73,222.13L128.31,170.5L128.89,122.74L129.47,191.74L130.05,150.87L130.63,229.67L131.21,123.82L131.79,149.61L132.37,323.89L133.53,229.62L134.11,234.25L134.69,289.36L135.28,148.45L135.86,228.14L136.44,256.82L137.02,248.47L137.6,132.43L138.76,238.13L139.34,165.48L139.92,325.21L140.5,81.57L141.66,181.58L142.24,101.66L142.82,264.72L143.4,232.29L143.98,180.86L144.56,198.81L145.15,182.53L145.73,101.47L146.31,169.84L146.89,244.85L147.47,205.92L148.05,206.42L148.63,172.33L149.21,161.84L149.79,177.3L150.37,244.42L150.95,207.97L151.53,102.21L152.11,114.9L152.69,292.78L153.27,290.34L153.85,103.16L154.43,372.25L155.02,339.4L155.6,198.96L156.18,202.5L156.76,271.4L157.92,132.39L158.5,187.9L159.08,181.35L159.66,287.23L160.24,102.8L160.82,212.06L161.4,216.22L161.98,242.52L163.72,141.1L164.3,185.68L164.88,273.14L165.47,475.49L166.05,155.9L166.63,187.79L167.21,203.49L167.79,332.65L168.37,204.12L169.53,151.22L170.11,303.4L171.85,148.72L172.43,185.75L173.01,197.98L173.59,241.51L174.75,128.07L175.34,275.44L175.92,131.96L176.5,175.48L177.08,183.33L177.66,161.74L178.24,331.52L178.82,223.56L179.4,185.32L179.98,242.01L180.56,235.23L181.14,177.92L181.72,260.63L182.3,190.11L182.88,125.02L183.46,140.63L184.04,278.5L184.62,213.41L185.21,272.8L185.79,246.09L186.37,345.22L186.95,212.29L187.53,217.69L188.11,127.94L188.69,140.42L189.27,191.74L189.85,328.87L190.43,265.51L191.01,126.3L191.59,193.25L192.17,130.7L192.75,173.2L193.33,209.16L193.91,158.05L195.08,279.25L195.66,189.9L196.82,294.78L197.4,290.24L198.56,178.93L199.14,149.4L199.72,198.64L200.3,59.17L202.04,436.65L202.62,132.67L203.78,186.01L204.36,109.57L204.94,271.56L205.53,239.52L206.11,203.22L206.69,80.19L207.27,239.33L208.43,81.73L209.01,170.1L210.17,279.01L210.75,175.92L212.49,259.13L213.07,165.8L213.65,127.63L214.23,183.94L214.81,260.42L215.4,151.53L216.56,209.56L217.14,143.07L217.72,126.9L218.3,152.69L218.88,161.89L219.46,188.24L220.62,73.19L221.2,192.95L221.78,170.32L222.36,58.35L222.94,220L223.52,122.53L224.1,324.29L224.68,209.5L225.27,140L225.85,162.48L226.43,252.1L227.01,203.14L227.59,169.53L228.17,175.72L228.75,329.05L229.33,99.11L229.91,253.33L231.07,106.22L231.65,271.54L232.23,156.22L232.81,224.07L233.97,204.17L234.55,242.69L235.72,197.74L236.3,190.2L236.88,157.59L237.46,166.39L238.04,306.22L239.2,258.21L239.78,196.34L240.36,58.72L240.94,317.33L241.52,342.3L242.1,162.05L242.68,181.8L243.26,232.54L243.84,165.7L244.42,260.01L245.01,137.27L245.59,226.07L246.17,221.35L246.75,205.4L247.33,316.7L247.91,132.65L248.49,199.73L249.07,180.85L249.65,195.4L250.23,177.37L250.81,307.95L251.39,144.73L251.97,255.47L252.55,286.94L253.13,148.22L254.29,236.51L254.87,90.51L255.46,344.56L256.04,-3.58L257.2,231.74L257.78,220.44L258.36,149.06L258.94,167.71L259.52,139.01L260.1,189.76L260.68,325.09L261.26,150.77L261.84,280.34L262.42,99.59L263,188.1L263.58,216.65L264.16,324.2L265.33,79.68L265.91,78.96L266.49,353.51L267.07,105L267.65,252.35L268.23,241.81L268.81,165.01L269.39,158.37L269.97,241.46L271.13,9.45L271.71,208.74L272.87,119.16L273.45,174.26L274.03,102.23L274.61,243.95L275.2,206.44L275.78,273.85L276.36,205.08L276.94,337.95L277.52,147.1L278.1,234.82L278.68,299.18L279.26,234.19L279.84,292.23L280.42,108.83L282.16,255.8L282.74,168.52L283.9,237.91L284.48,203.24L285.07,183.93L285.65,135.31L286.81,269.97L287.39,109.34L289.13,225.14L289.71,170.6L290.29,202.87L290.87,171.64L291.45,141.46L292.03,224.49L292.61,185.54L293.19,232.76L294.35,184.24L294.93,260.1L295.52,172.34L296.1,259.01L296.68,262.66L297.26,80.89L297.84,245.45L298.42,135.72L299,180.21L299.58,298.57L300.16,262.56L300.74,290.15L301.32,179.29L301.9,216.63L302.48,134.45L303.06,174.27L303.64,91.76L304.22,183.61L304.8,305.62L305.39,188.93L305.97,161.33L306.55,219.6L307.13,351.37L307.71,125.54L308.87,185.27L309.45,206.01L310.03,158.4L310.61,227.3L311.19,249.23L311.77,187.7L312.35,202.94L312.93,191.19L313.51,193.58L314.09,144.71L314.67,164.83L315.26,287.34L317,137.96L317.58,159.78L318.16,195.19L318.74,156.21L319.32,200.69L319.9,83.4L321.06,270.86L321.64,40.17L322.22,213.09L322.8,142.39L323.38,323.66L323.96,173.91L324.54,173.89L325.13,249.76L326.29,83.8L326.87,225.96L327.45,158.7L328.03,165L328.61,189.92L329.19,105.87L329.77,124.52L330.35,230.83L330.93,153.06L331.51,272.75L332.67,101.72L333.25,186.32L333.83,208.23L334.41,83.46L336.16,321.83L336.74,140.97L337.32,217.4L337.9,191.3L338.48,270.4L339.06,189.98L339.64,206.1L340.22,248.94L340.8,257.62L341.38,278.16L342.54,162.97L343.12,206.84L343.7,251.83L344.28,179.64L344.86,125.09L345.45,161.93L346.03,135.65L346.61,164.82L347.19,38.58L347.77,206.47L348.93,42.76L349.51,211.63L350.09,313.49L350.67,196.79L351.25,289.75L351.83,145.51L352.99,199.91L353.57,188.9L354.15,236.14L354.73,146.6L355.32,209.47L355.9,197.93L356.48,141.41L357.06,273L357.64,230.7L358.8,135.89L359.38,50.06L360.54,257.09L361.12,237.47L361.7,195.32L362.28,144.07L362.86,250.4L363.44,184.79L364.02,224.17L364.6,143.07L365.19,198.51L366.35,98.02L366.93,101.69L367.51,234.52L368.67,172.36L369.25,206.24L369.83,210.67L370.41,192.71L370.99,102.77L371.57,129.24L372.73,285.65L373.31,156.08L374.47,183.69L375.06,236.46L375.64,403.32L376.22,150.32L376.8,193.89L377.38,153.23L378.54,252.58L379.12,190.53L379.7,262.18L380.28,161.48L380.86,185.69L381.44,162.79L382.02,169.99L382.6,166.42L383.18,126.03L383.76,213.16L384.34,284.09L384.92,185.95L385.51,229.15L386.09,131.31L386.67,178.29L387.25,155.09L387.83,103.54L388.41,200.71L388.99,252.49L389.57,163.27L391.31,227.81L391.89,323.08L392.47,105.78L393.05,178.9L393.63,215.25L394.21,151.22L394.79,134.2L395.38,200.73L395.96,19.25L396.54,154.29L397.12,88.08L397.7,131.47L398.28,111.03L398.86,168.13L400.02,350.71L400.6,207.42L401.18,185.58L401.76,185.85L402.34,320.12L403.5,146.34L404.08,278.56L404.66,217.09L405.25,281.5L406.99,86.62L407.57,191.25L408.15,139.1L408.73,227.07L409.31,237.92L409.89,187.49L411.05,238.61L411.63,171.95L412.21,141.31L412.79,218.74L413.37,237.91L413.95,208.47L414.53,201.04L415.12,266.58L416.28,95.58L416.86,203.57L418.02,126.87L418.6,170.97L419.18,184.44L419.76,229.34L420.92,118.28L421.5,244.17L422.66,124.24L423.24,154.19L423.82,271.3L424.4,211.82L424.98,134.83L425.57,168.4L426.73,253.06L427.31,139.93L427.89,308.83L428.47,227.84L429.05,57.2L429.63,147.72L430.79,282.56L431.37,115.46L432.53,280.09L433.11,185.17L433.69,116.95L434.27,201.2L434.85,148.61L435.44,199.7L436.02,257.97L436.6,168.78L437.18,148.55L437.76,258.04L438.34,230.35L438.92,243.91L440.08,322.56L440.66,139.98L441.82,282.47L442.4,80.97L442.98,136.46L443.56,39.25L445.31,276.7L445.89,233.03L446.47,134.09L447.05,289.99L447.63,244.56L448.21,257.02L448.79,69.36L449.37,320.82L449.95,246.74L450.53,282.69L451.11,236.7L451.69,267.98L452.27,211.37L452.85,217.21L453.43,100.83L455.18,215.69L455.76,16.2L456.34,270.72L456.92,205.58L457.5,84.77L458.66,268.06L459.24,183.27L459.82,148.13L460.4,257.67L460.98,246.07L461.56,194.86L462.14,195.34L462.72,230.87L464.46,80.59L465.05,171.01L465.63,282.26L466.21,204.62L466.79,248.51L467.37,239.06L467.95,95.65L468.53,346.59L469.11,257.18L470.27,187.66L470.85,242.01L471.43,140.45L472.01,480.19L472.59,227.98L473.17,208.66L473.75,111.94L474.33,172.91L474.91,122.77L475.5,230.24L476.08,157.3L476.66,110.32L477.24,171.02L477.82,86.73L478.4,196.99L478.98,240.56L479.56,137.11L480.14,141.43L480.72,328.18L481.88,59.48L482.46,185.56L483.04,132.59L483.62,185.36L484.2,233.9L484.78,200.75L485.95,151.99L486.53,111.98L487.11,145.08L487.69,95.55L488.27,141.36L488.85,122.34L489.43,150.25L490.01,107.23L491.17,260.11L491.75,219.38L492.33,187.86L492.91,189.61L493.49,186.5L494.07,150.41L494.65,208.95L495.24,140.32L495.82,295.58L496.98,132.13L497.56,240.91L498.14,110.85L498.72,179.17L499.3,360.27L499.88,194.85L501.04,132.25L501.62,149.32L502.2,259.33L502.78,167.51L503.36,214.41L503.94,175.72L504.52,226.82L505.11,121.92L505.69,156.88L506.27,437.89L507.43,210.63L508.01,300.23L508.59,74.27L509.17,178.88L509.75,237.7L510.33,236.32L510.91,144.88L511.49,298.16L512.07,181L512.65,161.75L513.23,187.15L513.81,166.79L514.39,184.48L514.97,186.82L515.56,105.82L516.14,143.45L516.72,124.61L517.3,172.94L517.88,138.42L518.46,206.2L519.04,76.03L519.62,39.97L520.2,202.71L520.78,260.39L521.36,105.52L521.94,89.27L522.52,221.86L523.1,296.06L523.68,253.72L524.26,157.08L524.84,330.51L525.43,177.78L526.01,258.94L526.59,234.03L527.17,121.82L528.33,346.28L528.91,213.68L529.49,118.35L530.07,210.23L530.65,61.69L531.23,216.4L531.81,184.48L532.39,252.48L534.13,90.98L534.71,194.68L535.3,156.94L535.88,308.45L536.46,373.59L537.04,146.46L538.2,218.27L538.78,165.67L539.36,112.17L539.94,171.67L541.1,135.46L541.68,304.15L542.26,101.08L542.84,420.6L543.42,220.64L544,127.88L544.58,218.2L545.17,285.7L545.75,116.81L546.33,311.77L546.91,179.07L547.49,281.85L548.07,226.09L548.65,213.57L549.23,153.63L550.39,209.79L550.97,169.11L551.55,71.04L552.13,223.3L552.71,210.92L553.29,142.43L553.87,153.93L554.45,249.88L555.62,192.28L556.2,317.8L556.78,167.36L557.36,264.02L557.94,327.87L558.52,132.82L559.1,63.68L559.68,184.93L560.26,181.18L560.84,74.87L561.42,168.32L562,159.31L562.58,200.75L563.16,130.39L563.74,164.63L564.9,339.01L565.49,157.95L566.07,79.92L566.65,287.31L567.81,49.11L568.39,232.8L568.97,113.33L569.55,211.84L570.13,61.2L570.71,185.06L571.29,179.88L571.87,312.49L573.03,204.39L573.61,214.65L574.77,163.39L575.36,235.66L575.94,233.68L576.52,49.62L577.1,266.05L577.68,218.83L578.26,284.08L578.84,137.14L579.42,197.61L580,304.8" style="vector-effect: non-scaling-stroke; fill: none; stroke: rgb(178, 223, 138); stroke-opacity: 1; stroke-width: 2px; opacity: 1;"/></g><g class="points"/><g class="text"/></g><g class="trace scatter tracee295c9" style="stroke-miterlimit: 2; opacity: 1;"><g class="fills"/><g class="errorbars"/><g class="lines"><path class="js-line" d="M0,412.22L0.58,326.74L1.16,372.2L1.74,351.69L2.32,276.87L2.9,390.61L3.48,226.65L4.64,344.97L5.23,293.14L6.39,258.68L6.97,297.73L7.55,296.37L8.13,259.65L8.71,242.73L9.29,163.2L11.03,478.49L11.61,214.66L12.19,197.57L12.77,241.04L13.35,285.91L13.93,241.86L14.51,270.79L15.1,198.23L15.68,153.64L16.26,291.67L16.84,279.8L17.42,223.27L18,281.1L18.58,248.23L19.74,203.39L20.32,164.37L21.48,338.58L22.06,205.06L22.64,173.78L23.22,221.46L23.8,319.82L24.38,299.8L24.96,236.91L25.55,242.46L26.13,360.73L26.71,178.88L27.29,241.35L27.87,156.89L28.45,259.69L29.03,155.06L29.61,261.91L30.19,159.7L30.77,273.04L31.93,210.39L32.51,327.79L34.25,209.86L34.83,356.61L36,227.26L36.58,370.27L38.32,238.44L38.9,185.92L39.48,201.95L40.06,313.48L40.64,150.4L41.22,315.64L41.8,204.52L42.38,249.37L42.96,289.59L43.54,205.38L44.7,320.72L45.29,271.48L45.87,258.65L46.45,167.84L47.61,259.14L48.19,279.82L48.77,179L49.35,253.86L50.51,147.28L51.09,235.05L51.67,306.44L52.25,182.6L53.41,304.68L53.99,230.01L54.57,126.48L55.16,257.79L55.74,271.35L56.32,130.16L57.48,288.6L58.06,249.65L58.64,131.81L59.22,329.05L60.96,190.97L61.54,235.58L63.28,310.6L63.86,268.04L64.44,345.39L65.03,309.99L65.61,354.35L66.19,332.5L67.35,106.19L67.93,371.82L68.51,165.34L69.09,256.24L69.67,158.84L70.25,217.39L70.83,203.28L71.41,252.85L71.99,248.84L72.57,175.73L73.15,304.1L73.73,247.55L74.31,187.79L74.89,219.57L75.48,155.73L76.06,370.74L77.22,236.6L77.8,256.72L78.38,197.75L78.96,201.06L79.54,236.25L80.12,199.14L80.7,391.47L81.28,266.6L81.86,268.22L82.44,255.94L83.6,150.81L84.18,309.68L84.76,132.39L85.35,294.37L87.09,160.34L87.67,282.64L88.25,245.36L88.83,273.25L89.41,147.85L89.99,248.7L90.57,319.66L91.15,272.51L91.73,266.85L92.31,215.99L92.89,218.75L93.47,230.43L94.05,331.02L94.63,283.61L95.8,177.91L96.38,308.78L96.96,240.91L97.54,361.09L98.7,166.12L99.28,276.12L99.86,193.76L100.44,336.1L102.18,187.28L102.76,246.92L103.34,192.12L103.92,248.81L104.5,159.22L105.09,163.67L105.67,209.55L106.25,216.78L106.83,213.37L107.41,207.68L107.99,209.13L108.57,281.82L109.15,329.42L109.73,245.22L110.31,251.61L110.89,288.13L112.05,301.84L112.63,222.4L113.21,245.98L113.79,187.45L114.37,192.07L114.95,334.2L115.54,282.17L116.12,334.33L116.7,255.2L117.28,298.66L118.44,220.11L119.02,274.18L119.6,272.65L120.18,185.83L120.76,320.12L121.34,217.33L122.5,304.18L123.08,177L123.66,288.09L124.24,285.74L124.82,243.04L125.41,270.54L125.99,173.82L126.57,300.19L127.15,198.17L127.73,241.79L128.31,193.09L128.89,183.22L129.47,357.62L130.63,261.74L131.21,271.39L131.79,222.03L132.37,303.32L133.53,253.97L134.11,238L134.69,211.85L135.28,308.33L136.44,230.4L137.02,332.53L138.18,153.37L138.76,310.03L139.34,160.26L139.92,184.48L140.5,426.67L141.08,279.01L141.66,287.76L142.24,313.13L142.82,125.05L143.4,228.32L143.98,297.77L144.56,224.29L145.15,143.76L145.73,227.45L147.47,300.29L148.05,293.78L149.21,176.13L149.79,174.51L150.37,269.16L150.95,219.47L151.53,282.93L152.11,215.35L152.69,204.58L153.27,210.18L153.85,324.2L154.43,239.17L155.02,259.01L155.6,66.95L156.18,261.61L156.76,150.75L157.34,182.83L157.92,282.47L158.5,210.23L159.08,371.84L159.66,273.6L160.24,281.31L160.82,306.64L161.4,221.9L161.98,283.88L163.14,243.08L163.72,304L164.3,203.63L164.88,308.61L165.47,159.38L166.05,257.06L166.63,239.21L167.21,289.87L168.37,248.75L168.95,336.33L170.69,135.25L171.27,193.86L172.43,131L173.01,155.97L174.17,310.07L174.75,127.31L175.92,298.55L176.5,272.32L177.08,164.81L177.66,204.53L178.24,304.02L178.82,289.73L179.4,100.4L181.14,320.32L181.72,305.56L183.46,158.39L184.04,217.4L184.62,335.44L185.21,206.82L185.79,169.46L186.37,200.83L186.95,145.88L187.53,241.69L188.11,203.08L188.69,215.65L189.27,285.98L189.85,95.89L190.43,302.45L191.01,262.95L191.59,238.51L192.17,292L192.75,243.7L193.91,283.05L194.49,228.32L195.08,244.47L195.66,141.08L196.82,235.35L197.4,153.43L199.14,356.18L199.72,307.04L200.3,176.17L200.88,188.7L201.46,208.99L202.04,302.02L202.62,293.52L203.2,221.98L203.78,177.29L204.36,362.14L205.53,237.98L206.11,185.34L206.69,237.58L207.27,173.32L208.43,294.43L209.01,198.41L210.17,284.55L210.75,214.49L211.33,205.96L211.91,339.21L213.07,194.04L213.65,275.11L214.81,229.13L215.4,257.83L216.56,218.86L217.14,247.32L217.72,317.29L218.3,217.05L218.88,181.02L219.46,305.49L220.04,265.86L220.62,338.35L221.2,261.29L221.78,357.58L222.36,215.45L222.94,264.55L224.1,216.15L224.68,226.66L225.27,472.4L225.85,253.57L226.43,219.22L227.01,270.17L227.59,270.6L228.17,184.92L229.33,345.58L229.91,274.17L230.49,142.43L231.07,194.88L231.65,210.91L232.23,379.07L232.81,131.13L233.39,272.3L234.55,165.73L235.14,284.55L236.3,171.23L236.88,187.92L237.46,286.55L238.04,256.73L238.62,199.86L239.2,233.44L239.78,269.58L240.36,247.35L241.52,127.61L242.1,186.43L242.68,199.69L243.26,301.81L243.84,251.5L244.42,402.82L245.59,142.97L246.17,302.07L246.75,195.73L247.33,265.8L247.91,221.7L248.49,260.97L249.07,245.21L249.65,183.82L250.23,335.27L250.81,307.85L251.39,329.44L251.97,64.62L252.55,270.56L253.13,215.94L253.71,285.48L254.87,184.36L255.46,248.59L256.04,137.47L256.62,190.55L257.78,179.59L258.36,318.01L258.94,193.85L259.52,195.15L260.1,290.9L260.68,153.25L261.26,270.57L263.58,84.1L264.16,187.34L265.33,281.51L265.91,211.36L266.49,330.96L267.07,231.93L268.23,266.16L268.81,158.94L269.39,222.85L269.97,389.52L271.13,228.17L271.71,248.49L272.29,241.56L272.87,150.93L273.45,258.66L274.03,170.28L274.61,167.6L275.2,331.26L275.78,154.49L276.36,239.54L276.94,261.67L277.52,208.44L278.1,245.46L278.68,158.42L279.84,379.01L280.42,262.72L281,213.83L281.58,236.88L282.16,267.14L282.74,347.1L283.32,260.96L283.9,340.24L284.48,261.19L285.07,295.98L286.23,214.84L286.81,262.96L287.39,311.74L287.97,219.24L288.55,288.93L289.13,243.99L289.71,168.62L290.29,261.39L290.87,305.9L291.45,292.23L292.61,200.24L293.19,264.47L293.77,198.14L294.35,266.88L294.93,315.97L295.52,229.84L296.1,272.31L296.68,201.96L297.26,301.12L297.84,194.03L299,267.23L299.58,173.15L300.16,236.74L300.74,128.65L301.32,151.05L301.9,374.15L303.06,179.23L303.64,166.39L304.22,340.66L304.8,247.84L305.39,243.01L305.97,302.36L306.55,96.28L307.13,217.43L307.71,279.87L308.29,179.58L308.87,231.61L309.45,217.61L310.03,231.55L310.61,255.76L311.19,214.9L311.77,210.57L312.35,219.01L312.93,231.53L313.51,285.64L314.09,273.05L314.67,226.19L315.26,374.85L315.84,262.3L316.42,272.21L317,200.46L317.58,283.41L318.16,189.05L318.74,227.19L319.32,193.93L319.9,210.22L320.48,370.17L321.06,174.18L321.64,250.94L322.8,197.05L323.38,207.06L323.96,99.63L324.54,170.68L325.13,272.63L325.71,208.84L326.29,214.4L326.87,255.96L327.45,328.46L328.03,303.07L329.19,233L329.77,265.89L330.35,321.02L330.93,270.53L331.51,121.97L332.09,210.33L332.67,213.13L333.25,240.3L333.83,109.39L334.41,196.28L334.99,168.08L335.58,296.59L336.16,351.08L336.74,263.51L337.32,235.1L337.9,350.03L338.48,205.13L339.06,283.43L340.22,372.81L340.8,247.19L341.38,256.81L341.96,164.95L342.54,240.98L343.12,194.91L343.7,270.4L344.28,213.86L344.86,213.47L345.45,155.4L346.03,371.34L346.61,251.49L347.19,288.05L347.77,445.99L348.35,177.72L348.93,241.31L349.51,316.2L350.67,280.48L351.25,196.96L351.83,155.94L352.41,305.71L353.57,245.46L354.15,290.99L354.73,158.13L355.32,262.9L355.9,303.23L356.48,272.94L357.06,198.26L357.64,230.29L358.22,258.72L358.8,258.46L359.38,247.91L359.96,320.72L360.54,251.86L361.12,99.09L361.7,220.87L362.28,166.27L362.86,249.01L364.02,219.19L364.6,315.03L365.19,172.68L365.77,261.46L366.93,209.32L367.51,356.63L368.09,216.24L368.67,262.48L369.25,238.07L369.83,327.58L370.99,169.03L371.57,315.44L372.15,192.81L372.73,247.19L373.31,386.56L373.89,177.88L375.06,299.71L375.64,199.05L376.22,203.29L376.8,167.5L377.38,340.91L377.96,289.09L378.54,348.58L379.12,250.04L379.7,321.76L380.28,224.41L380.86,184.37L381.44,246.75L382.02,87.48L382.6,243.53L383.18,114.68L383.76,295.49L384.34,257.08L384.92,276.03L386.09,241.03L386.67,168.07L387.25,327.94L387.83,221.81L388.99,325.1L389.57,282.54L390.15,252.45L390.73,287.91L391.31,352.39L391.89,298.6L392.47,291.42L393.05,194.07L393.63,228.73L394.21,388.8L394.79,268.83L395.38,274.34L395.96,221.93L396.54,214.13L397.12,393.57L397.7,200.15L398.28,249.73L398.86,250.22L399.44,285.9L400.02,215.1L400.6,223.3L401.18,202.54L401.76,264.32L402.34,204.65L402.92,212.54L403.5,235.86L404.08,247.53L404.66,195.36L405.83,245.06L406.41,146.92L406.99,287.29L407.57,242.85L408.15,285.16L408.73,185.6L409.31,268.26L409.89,174.68L410.47,317.77L411.05,247.89L411.63,278.64L412.21,229.71L413.37,324.1L413.95,266.15L414.53,157.51L415.12,242.17L415.7,374.44L416.28,292.75L416.86,271.58L417.44,157.55L418.6,241.83L419.18,190.71L420.34,397.5L420.92,188.23L421.5,328.18L422.08,172.03L423.24,285.62L423.82,217.39L424.98,293.99L425.57,244.1L426.15,202.11L426.73,203.52L427.31,222.57L427.89,248.58L428.47,175.47L429.63,300.21L430.21,205.1L431.37,246.39L431.95,178.31L433.11,338.13L433.69,187.3L434.27,345.98L434.85,259.46L435.44,317.86L436.02,161.27L437.18,41.67L437.76,268.76L438.34,185.19L438.92,329.45L440.08,108.1L440.66,147.08L441.24,180.58L441.82,267.85L442.4,177.81L442.98,334.9L443.56,148.66L444.14,222.22L444.72,245.66L445.31,221.06L445.89,221.22L446.47,296.54L447.05,108.46L447.63,235.41L448.79,246.79L449.37,307.77L449.95,135.43L450.53,164.71L451.11,150.33L451.69,238.24L452.27,211.25L452.85,175.7L453.43,219.62L454.59,153.7L455.18,378.57L456.34,187.7L456.92,371.95L457.5,226.87L458.08,320.07L459.24,99.71L459.82,247.4L460.4,208.26L460.98,225.7L461.56,286.7L462.14,238.26L462.72,304.96L463.3,264.85L463.88,123.4L464.46,323.22L465.63,240.69L466.21,402.97L467.37,216.99L467.95,316.08L468.53,205.6L469.11,272.84L469.69,277.69L470.27,256.08L470.85,279.95L471.43,182.97L472.59,281.18L473.17,248.68L473.75,179.39L474.33,260.6L474.91,253.48L475.5,408.61L476.08,261.6L476.66,267.28L477.24,184.3L478.98,299.5L479.56,317.22L480.14,294.4L480.72,210.9L481.3,142.63L481.88,298.99L482.46,266.13L483.04,121.52L483.62,328.65L484.2,262.36L485.37,178.17L485.95,179.19L486.53,312.44L487.11,208.51L487.69,281.14L488.27,156.2L488.85,206.69L489.43,341.26L490.01,228.46L490.59,169.45L491.17,245.26L491.75,313.33L492.33,231.15L492.91,168.81L493.49,252.53L494.07,225.96L494.65,241.94L495.24,233.39L495.82,172.95L496.4,170.38L496.98,210.48L497.56,214.94L498.14,268.59L498.72,154.39L499.3,237.73L499.88,171.97L500.46,278.5L501.62,197.38L502.2,266.81L503.36,343.41L503.94,242.08L504.52,279.39L505.11,208.94L505.69,255.66L506.27,212.56L506.85,197.05L507.43,286.17L508.01,280.19L508.59,341.99L509.17,295.32L509.75,179.76L510.33,173.64L510.91,269.01L511.49,170.8L512.07,212.28L512.65,246.29L513.23,353.93L513.81,143.7L514.39,268.6L514.97,268.9L515.56,314.39L516.14,254.23L516.72,258.78L517.3,290.82L517.88,255.24L518.46,350.84L519.62,155.61L520.2,247.58L521.36,203.38L521.94,308.17L523.1,280.38L523.68,248.71L524.26,362.1L524.84,84.99L526.01,314.89L526.59,245.09L527.17,195.22L527.75,308.14L528.33,337.79L528.91,326.82L529.49,178.15L530.07,315.39L530.65,297.24L531.23,168.84L531.81,133.24L532.39,280.31L533.55,92.88L534.13,241.2L534.71,162.87L535.3,422.52L536.46,178.42L537.04,326.01L537.62,439.48L538.2,198.33L538.78,171.86L539.36,256.88L539.94,202.18L540.52,233.37L541.1,215.84L541.68,247.4L542.26,157.43L542.84,198.58L543.42,170.41L544,224.74L544.58,212.5L545.17,83.42L545.75,312.05L546.33,196.15L547.49,234.73L548.07,119.48L548.65,168.03L549.23,341.07L549.81,229.69L550.39,404.72L551.55,288.22L552.13,298.79L552.71,210.56L553.29,295.58L553.87,292.26L554.45,113.92L555.04,248.22L555.62,166.09L556.78,249.53L557.36,185.29L557.94,208.66L558.52,275.7L559.1,192.54L559.68,213.12L560.26,221.99L560.84,275.64L561.42,241.39L562,187.98L562.58,209.41L563.16,137.81L563.74,233.64L564.32,200.21L564.9,219.86L566.07,271.97L566.65,298.19L567.23,355.43L567.81,288.56L568.39,266.28L568.97,298.08L569.55,247.74L570.13,267.67L571.29,152.83L571.87,373.5L573.03,200.82L573.61,282.77L574.19,137.99L574.77,288.82L575.36,206.79L575.94,259.59L576.52,289.4L577.1,215.85L578.84,107.96L579.42,369.37L580,279.19" style="vector-effect: non-scaling-stroke; fill: none; stroke: rgb(166, 206, 227); stroke-opacity: 1; stroke-width: 2px; opacity: 1;"/></g><g class="points"/><g class="text"/></g></g></g><g class="overplot"/><path class="xlines-above crisp" d="M79,415.5H660" style="fill: none; stroke-width: 1px; stroke: rgb(68, 68, 68); stroke-opacity: 1;"/><path class="ylines-above crisp" d="M79.5,40V415" style="fill: none; stroke-width: 1px; stroke: rgb(68, 68, 68); stroke-opacity: 1;"/><g class="overlines-above"/><g class="xaxislayer-above"><g class="xtick"><text text-anchor="middle" x="0" y="440" transform="translate(80,0)" style="font-family: 'Times New Roman'; font-size: 20px; fill: rgb(68, 68, 68); fill-opacity: 1; white-space: pre;">0</text></g><g class="xtick"><text text-anchor="middle" x="0" y="440" transform="translate(196.12,0)" style="font-family: 'Times New Roman'; font-size: 20px; fill: rgb(68, 68, 68); fill-opacity: 1; white-space: pre;">200</text></g><g class="xtick"><text text-anchor="middle" x="0" y="440" transform="translate(312.23,0)" style="font-family: 'Times New Roman'; font-size: 20px; fill: rgb(68, 68, 68); fill-opacity: 1; white-space: pre;">400</text></g><g class="xtick"><text text-anchor="middle" x="0" y="440" transform="translate(428.35,0)" style="font-family: 'Times New Roman'; font-size: 20px; fill: rgb(68, 68, 68); fill-opacity: 1; white-space: pre;">600</text></g><g class="xtick"><text text-anchor="middle" x="0" y="440" transform="translate(544.46,0)" style="font-family: 'Times New Roman'; font-size: 20px; fill: rgb(68, 68, 68); fill-opacity: 1; white-space: pre;">800</text></g></g><g class="yaxislayer-above"><g class="ytick"><text text-anchor="end" x="75" y="7" transform="translate(0,415)" style="font-family: 'Times New Roman'; font-size: 20px; fill: rgb(68, 68, 68); fill-opacity: 1; white-space: pre;">0</text></g><g class="ytick"><text text-anchor="end" x="75" y="7" transform="translate(0,290)" style="font-family: 'Times New Roman'; font-size: 20px; fill: rgb(68, 68, 68); fill-opacity: 1; white-space: pre;">1</text></g><g class="ytick"><text text-anchor="end" x="75" y="7" transform="translate(0,165)" style="font-family: 'Times New Roman'; font-size: 20px; fill: rgb(68, 68, 68); fill-opacity: 1; white-space: pre;">2</text></g><g class="ytick"><text text-anchor="end" x="75" y="7" transform="translate(0,40)" style="font-family: 'Times New Roman'; font-size: 20px; fill: rgb(68, 68, 68); fill-opacity: 1; white-space: pre;">3</text></g></g><g class="overaxes-above"/></g></g><g class="polarlayer"/><g class="ternarylayer"/><g class="geolayer"/><g class="pielayer"/><g class="glimages"/><defs id="topdefs-98e669"><g class="clips"/></defs><g class="layer-above"><g class="imagelayer"/><g class="shapelayer"/></g><g class="infolayer"><g class="g-gtitle"/><g class="g-xtitle"/><g class="g-ytitle"/></g></svg>